<svg width="45" height="40" viewBox="0 0 45 40" fill="none" xmlns="http://www.w3.org/2000/svg">
<path d="M24.3207 21C26.01 21 27.5979 20.3698 28.7924 19.2257C30.3083 17.7733 30.8906 15.7607 30.5423 13.8769L32.9023 11.6162C33.0717 11.4539 33.167 11.2335 33.167 11.0039V8.91456L33.9155 8.19749H36.0962C36.3358 8.19749 36.5656 8.10621 36.7349 7.94393L37.7353 6.98546C37.9047 6.82318 38 6.60309 38 6.37353V2.70162C38 2.47206 37.9047 2.25163 37.7353 2.08935L35.8189 0.253562C35.466 -0.0845206 34.8943 -0.0845206 34.5415 0.253562L32.3684 2.33547C32.0156 2.67356 32.0156 3.22159 32.3684 3.55967C32.7213 3.89742 33.293 3.89742 33.6459 3.55967L35.1802 2.08969L36.1933 3.05999V6.01517L35.7222 6.46651H33.541C33.3014 6.46651 33.0717 6.55779 32.9023 6.72007L31.6246 7.94393C31.4552 8.10621 31.3599 8.32664 31.3599 8.55586V10.6455L29.8828 12.0608C29.5987 11.5567 29.2363 11.083 28.7924 10.6577C28.3534 10.2371 27.8608 9.88655 27.3301 9.61067L28.5358 8.45545C28.8884 8.1177 28.8884 7.56967 28.5358 7.23159C28.183 6.8935 27.611 6.8935 27.2581 7.23159L25.4351 8.97812C25.0706 8.91659 24.6987 8.88312 24.3207 8.88312C22.6315 8.88312 21.0436 9.51331 19.8494 10.6577C17.3835 13.0199 17.3835 16.8636 19.8494 19.2257C21.0439 20.3698 22.6319 21 24.3207 21ZM21.1268 11.8816C21.9801 11.0641 23.1146 10.6141 24.3207 10.6141C24.7128 10.6141 25.0967 10.6624 25.4658 10.7544C25.4672 10.7547 25.4683 10.7551 25.4697 10.7554C26.2365 10.9471 26.9398 11.3305 27.5146 11.8816C28.0902 12.433 28.4903 13.1071 28.6904 13.8418C28.6908 13.8425 28.6908 13.8435 28.6911 13.8441C28.7874 14.1981 28.8376 14.5659 28.8376 14.9416C28.8376 16.0975 28.3679 17.1844 27.5146 18.0015C26.6617 18.819 25.5272 19.269 24.3207 19.269C23.1146 19.269 21.9801 18.819 21.1268 18.0015C20.2739 17.1841 19.8039 16.0975 19.8039 14.9416C19.8039 13.7857 20.2739 12.6991 21.1268 11.8816Z" fill="#2965B4"/>
<path d="M23.1302 16.8364C23.2288 16.9449 23.3644 17 23.5001 17C23.62 17 23.7405 16.957 23.8364 16.8699C24.0407 16.6842 24.0557 16.3679 23.8698 16.1636C23.6841 15.9593 23.3679 15.9443 23.1636 16.13C22.9593 16.3157 22.9443 16.6319 23.13 16.8362L23.1302 16.8364Z" fill="#2965B4"/>
<path d="M44.8732 27.3503C44.4935 26.1566 43.1889 25.1021 41.2213 25.6073C41.2161 25.6086 41.2113 25.6097 41.2062 25.6111L33.1618 27.8298C33.019 27.2482 32.6901 26.735 32.2146 26.3607C31.6567 25.9215 30.9656 25.7284 30.269 25.817C29.7986 25.8767 28.5307 26.0628 27.188 26.26C25.9132 26.4468 24.5949 26.6406 24.142 26.6982C23.1028 26.8301 21.8813 26.3322 20.5873 25.8052C18.5359 24.9698 16.0558 23.9601 13.3597 25.1694V24.8889C13.3597 24.3979 12.9662 24 12.4808 24H5.4492C4.96409 24 4.5703 24.3979 4.5703 24.8889H0.878904C0.393447 24.8889 0 25.2868 0 25.7777C0 26.2687 0.393447 26.6666 0.878904 26.6666H4.5703V37.333H0.878904C0.393447 37.333 0 37.7313 0 38.2219C0 38.7129 0.393447 39.1111 0.878904 39.1111H4.5703C4.5703 39.6017 4.96409 40 5.4492 40H12.4808C12.9662 40 13.3597 39.6017 13.3597 39.1111V38.183L14.5325 38.1907H14.538C15.0207 38.1907 15.4138 37.7962 15.4169 37.3074C15.42 36.8164 15.0289 36.4157 14.5435 36.4129L13.3597 36.4053V27.1833C15.661 25.7173 17.7381 26.5614 19.9305 27.4544C21.3756 28.043 22.869 28.6516 24.3611 28.4621C24.8308 28.4023 26.0983 28.2162 27.4403 28.0194C28.7158 27.8322 30.0345 27.6385 30.4877 27.5808C30.7184 27.5517 30.9477 27.6166 31.1345 27.7635C31.3254 27.9138 31.4466 28.1294 31.4764 28.3711C31.4957 28.5284 31.5468 28.9468 30.4454 29.4634C28.1136 30.5571 25.629 31.4936 23.6284 32.0318C23.1591 32.1582 22.8803 32.645 23.005 33.1196C23.1299 33.5939 23.6113 33.8762 24.0806 33.7498C26.1752 33.1859 28.7649 32.2116 31.185 31.0762C32.0264 30.6815 32.5438 30.2221 32.8494 29.7589L41.6607 27.3287C42.5877 27.0933 43.0632 27.4662 43.1995 27.8944C43.3337 28.3162 43.172 28.8593 42.5087 29.1238C41.819 29.3898 40.1724 30.1228 38.0888 31.0502C35.3282 32.2786 31.8925 33.8081 29.1532 34.9321C25.8971 36.2674 24.9042 36.4657 21.5719 36.457C21.5709 36.457 21.5699 36.457 21.5692 36.457C21.0848 36.457 20.6917 36.8532 20.6903 37.3431C20.6886 37.8341 21.081 38.233 21.5664 38.2348C21.6385 38.2348 21.7096 38.2351 21.7797 38.2351C25.173 38.2351 26.4258 37.9691 29.8137 36.5792C32.5771 35.4456 36.0258 33.9105 38.7971 32.6772C40.7808 31.7943 42.494 31.0318 43.1387 30.7835C43.1415 30.7825 43.1442 30.7815 43.147 30.7804C44.7891 30.1294 45.2584 28.5621 44.8732 27.3503ZM6.32845 38.2219V25.7777H11.6019V37.2824V37.283V37.2841V38.2223H6.32845V38.2219Z" fill="#2965B4"/>
<path d="M9.5 35C9.22383 35 9 35.4476 9 35.9998V36.0006C9 36.5528 9.22383 37 9.5 37C9.77617 37 10 36.552 10 35.9998C10 35.4476 9.77617 35 9.5 35Z" fill="#2965B4"/>
<path d="M30.5 6C30.6279 6 30.7558 5.90235 30.8534 5.70706L30.8536 5.70667C31.0489 5.31608 31.0487 4.68333 30.8534 4.29274C30.6584 3.90216 30.3416 3.90255 30.1463 4.29314C29.9512 4.68333 29.9512 5.31647 30.1463 5.70706C30.244 5.90235 30.3721 6 30.5 6Z" fill="#2965B4"/>
<path d="M18.0002 37H17.9994C17.4472 37 17 37.2238 17 37.5C17 37.7762 17.448 38 18.0002 38C18.5524 38 19 37.7762 19 37.5C19 37.2238 18.5524 37 18.0002 37Z" fill="#2965B4"/>
</svg>
