<svg width="53" height="47" viewBox="0 0 53 47" fill="none" xmlns="http://www.w3.org/2000/svg">
<path d="M53 19.7097H51.0791L48.2162 21.0455C47.8939 20.8879 47.5588 20.7542 47.1973 20.6739L43.5959 19.8748V19.5116C45.1892 18.5256 46.1613 16.8965 46.1613 15.1613V13.8362C46.1613 10.8913 43.5592 8.4268 40.3611 8.34093C40.1987 8.33723 40.0388 8.34241 39.8781 8.34944L40.8119 6.41098L36.2851 2.39782L33.6167 3.93801C32.6028 3.43165 31.5305 3.03744 30.4169 2.76094L29.7578 0H23.243L22.5839 2.76168C21.4703 3.03818 20.3972 3.43239 19.3841 3.93875L16.7157 2.39856L12.1927 6.40949L13.1106 8.34944C13.0755 8.34796 13.0421 8.34241 13.0071 8.34167C11.37 8.29947 9.82814 8.82916 8.65691 9.83744C7.48401 10.845 6.83871 12.1971 6.83871 13.6452V15.1613C6.83871 16.8965 7.81 18.5248 9.40323 19.5109V19.8748L7.05409 20.3956L2.79617 18.1935H0V33.9015L8.40981 36.3871H10.0477L10.2522 35.7519L12.8301 37.1241C12.8723 38.367 13.9963 39.3672 15.3967 39.4108C15.446 40.6475 16.5667 41.6414 17.9612 41.685C18.0105 42.9217 19.1312 43.9156 20.5257 43.9592C20.5767 45.2248 21.7454 46.2419 23.1842 46.2419C23.7184 46.2419 24.2423 46.0942 24.6826 45.8311L25.4398 46.424C25.9144 46.7946 26.5255 47 27.1599 47H27.3181C28.7406 47 29.8981 45.9802 29.916 44.7228C31.3231 44.7069 32.4626 43.6964 32.4805 42.4487C33.8884 42.4327 35.0288 41.4207 35.045 40.1722C36.4659 40.1426 37.6129 39.1132 37.6129 37.8462C37.6129 37.77 37.6087 37.6948 37.6 37.6189L53 30.7912V19.7097ZM44.4516 13.8362V15.1613C44.4516 16.5068 43.6318 17.7638 42.312 18.4415L41.8846 18.6607L41.8879 21.0596L46.1588 22.0057L36.7581 26.3935V24.3513C36.7581 23.3323 36.2939 22.3992 35.5338 21.7096L38.4677 21.0596V18.6588L38.0412 18.4401C36.7222 17.7638 35.9032 16.5068 35.9032 15.1613V13.6452C35.9032 12.6113 36.364 11.6445 37.2018 10.9246C38.0387 10.205 39.1489 9.81708 40.3097 9.85706C42.5933 9.91776 44.4516 11.703 44.4516 13.8362ZM27.7889 25.7975L23.9192 24.7008C22.1557 24.1996 20.2469 24.1248 18.4416 24.4794L17.9516 24.5757V24.3513C17.9516 23.306 18.7509 22.3984 19.8938 22.1445L24.7903 21.0596V18.6588L24.3637 18.4401C23.0447 17.7638 22.2258 16.5068 22.2258 15.1613V13.6452C22.2258 12.6113 22.6866 11.6445 23.5243 10.9246C24.3612 10.205 25.4786 9.81708 26.6323 9.85706C28.9159 9.91776 30.7742 11.703 30.7742 13.8362V15.1613C30.7742 16.5068 29.9544 17.7638 28.6346 18.4415L28.2072 18.6607L28.2105 21.0596L33.1062 22.1445C34.2491 22.3984 35.0484 23.306 35.0484 24.3513V27.1919L34.8372 27.2903H34.3133L29.0578 25.9585C28.6438 25.8545 28.2172 25.8119 27.7889 25.7975ZM18.1432 11.3458C19.7485 8.58745 22.9796 6.82258 26.5 6.82258C29.987 6.82258 33.2043 8.56376 34.8217 11.2847C34.4148 12.0084 34.1936 12.8097 34.1936 13.6452V15.1613C34.1936 16.8965 35.1648 18.5248 36.7581 19.5109V19.8748L33.3387 20.6339L29.9185 19.8748V19.5116C31.5117 18.5256 32.4839 16.8965 32.4839 15.1613V13.8362C32.4839 10.8913 29.8818 8.4268 26.6837 8.34093C25.0474 8.29836 23.5047 8.82842 22.3335 9.8367C21.1614 10.845 20.5161 12.1971 20.5161 13.6452V15.1613C20.5161 16.8965 21.4874 18.5248 23.0806 19.5109V19.8748L19.6613 20.6339L16.2411 19.8748V19.5116C17.8343 18.5256 18.8065 16.8965 18.8065 15.1613V13.8362C18.8065 12.9441 18.5644 12.0972 18.1432 11.3458ZM14.2117 6.76114L16.9428 4.33925L19.3466 5.72657L19.8065 5.47635C20.959 4.85006 22.2045 4.39144 23.5081 4.11494L24.034 4.00316L24.6288 1.51613H28.372L28.9652 4.00242L29.4911 4.11383C30.7946 4.3907 32.0402 4.84932 33.1926 5.47561L33.6526 5.72583L36.0564 4.33851L38.7841 6.75817L37.8145 8.77141C37.1546 9.02311 36.5427 9.37735 36.0101 9.83522C35.975 9.86557 35.945 9.89815 35.9107 9.92924C33.8968 7.0902 30.3363 5.30645 26.5 5.30645C22.6361 5.30645 19.0657 7.10685 17.0567 9.97477C16.5191 9.47581 15.8796 9.0716 15.1709 8.78918L14.2117 6.76114ZM11.1129 21.0596V18.6588L10.6863 18.4401C9.36733 17.7638 8.54839 16.5068 8.54839 15.1613V13.6452C8.54839 12.6113 9.0092 11.6445 9.84692 10.9246C10.6838 10.205 11.7966 9.81708 12.9549 9.85706C15.2385 9.91776 17.0968 11.703 17.0968 13.8362V15.1613C17.0968 16.5068 16.277 17.7638 14.9572 18.4415L14.5298 18.6607L14.5331 21.0596L17.4662 21.7096C16.7061 22.3992 16.2419 23.3323 16.2419 24.3513V24.9129L13.5756 25.4385L13.6449 25.2238L13.6774 23.8228L9.16906 21.4905L11.1129 21.0596ZM1.70968 19.7097H2.33286L8.48077 22.8896L5.37864 33.893L1.70968 32.8081V19.7097ZM8.68696 34.871L7.00442 34.3739L10.0181 23.6851L11.9677 24.6934V24.9099L8.75876 34.871H8.68696ZM14.5323 37.0534C14.5323 36.8298 14.6341 36.6107 14.8128 36.4522L16.3154 35.1197C16.494 34.9613 16.7411 34.871 16.9933 34.871C17.5217 34.871 17.9516 35.2522 17.9516 35.7208C17.9516 35.9444 17.8498 36.1635 17.6711 36.3219L16.1685 37.6545C15.9898 37.8129 15.7427 37.9032 15.4906 37.9032C14.9622 37.9032 14.5323 37.522 14.5323 37.0534ZM17.0968 39.3276C17.0968 39.104 17.1986 38.8849 17.3773 38.7264L18.8799 37.3939C19.0586 37.2355 19.3057 37.1452 19.5578 37.1452C20.0862 37.1452 20.5161 37.5264 20.5161 37.995C20.5161 38.2186 20.4143 38.4377 20.2356 38.5961L18.733 39.9287C18.5543 40.0871 18.3072 40.1774 18.0551 40.1774C17.5267 40.1774 17.0968 39.7962 17.0968 39.3276ZM19.6613 41.6017C19.6613 41.3782 19.7631 41.1591 19.9418 41.0006L21.4444 39.6681C21.6231 39.5097 21.8702 39.4194 22.1223 39.4194C22.6507 39.4194 23.0806 39.8006 23.0806 40.2692C23.0806 40.4928 22.9788 40.7119 22.8002 40.8703L21.2975 42.2029C21.1189 42.3613 20.8718 42.4516 20.6196 42.4516C20.0912 42.4516 19.6613 42.0704 19.6613 41.6017ZM23.1842 44.7258C22.6557 44.7258 22.2258 44.3446 22.2258 43.8759C22.2258 43.6524 22.3277 43.4332 22.5063 43.2748L24.0089 41.9423C24.1876 41.7839 24.4347 41.6935 24.6868 41.6935C25.2152 41.6935 25.6452 42.0748 25.6452 42.5434C25.6452 42.767 25.5433 42.9861 25.3647 43.1445L23.862 44.4771C23.6834 44.6355 23.4363 44.7258 23.1842 44.7258ZM27.3181 45.4839H27.1599C26.942 45.4839 26.7333 45.4135 26.571 45.2858L25.9315 44.7858L26.5735 44.2165C26.8026 44.0133 26.9804 43.7716 27.1119 43.5121L27.8891 44.0858C28.0924 44.2361 28.2097 44.4574 28.2097 44.6932C28.2097 45.1293 27.8098 45.4839 27.3181 45.4839ZM34.9841 38.6613H34.8363C34.6218 38.6613 34.4123 38.5939 34.2482 38.4718L29.6126 35.046L28.5173 36.2113L33.019 39.5374C33.2214 39.6877 33.3387 39.9091 33.3387 40.1448C33.3387 40.5809 32.9388 40.9355 32.4471 40.9355H32.2606C32.0531 40.9355 31.8503 40.8703 31.6904 40.7519L27.0472 37.321L25.952 38.4862L30.4536 41.8127C30.6569 41.9619 30.7742 42.1833 30.7742 42.419C30.7742 42.8551 30.3743 43.2097 29.8826 43.2097C29.5545 43.2097 29.2348 43.1064 28.9831 42.921L27.0752 41.5107C26.6549 40.7489 25.7913 40.2178 24.7799 40.1859C24.7306 38.9493 23.6099 37.9554 22.2154 37.9117C22.1661 36.6751 21.0454 35.6812 19.6509 35.6375C19.6008 34.372 18.432 33.3548 16.9933 33.3548C16.2908 33.3548 15.6033 33.6073 15.1066 34.0478L13.604 35.3803C13.5142 35.4599 13.4399 35.5502 13.3644 35.6398L10.7385 34.2425L13.0405 27.0978L18.8115 25.96C20.3254 25.6598 21.9215 25.725 23.3979 26.144L24.6572 26.5012L20.388 28.3941C19.4125 28.8275 18.8065 29.6978 18.8065 30.6653V30.8152C18.8065 32.2155 20.0912 33.3548 21.6702 33.3548C22.1891 33.3548 22.6996 33.2297 23.1433 32.9925L26.3264 31.2998C26.9658 30.96 27.824 31.0344 28.3762 31.4749L35.5989 37.2392C35.7922 37.3946 35.9032 37.6152 35.9032 37.8462C35.9032 38.296 35.4913 38.6613 34.9841 38.6613ZM51.2903 29.854L36.8887 36.2401C36.842 36.1961 36.7931 36.1543 36.7418 36.1136L29.5203 30.3492C28.8875 29.8429 28.0694 29.5645 27.2171 29.5645C26.5939 29.5645 25.982 29.7148 25.4461 29.9998L22.2617 31.6932C22.0831 31.7887 21.8789 31.8387 21.6702 31.8387C21.0333 31.8387 20.5161 31.3801 20.5161 30.8152V30.6653C20.5161 30.2748 20.7607 29.9247 21.1539 29.7503L25.9223 27.636C26.7383 27.2737 27.7071 27.1926 28.5866 27.4169L33.9586 28.7776L35.2596 28.8065L51.2903 21.3243V29.854Z" fill="#2965B4"/>
</svg>
