<svg width="55" height="55" viewBox="0 0 55 55" fill="none" xmlns="http://www.w3.org/2000/svg">
<path d="M12.832 36.2084C9.79876 36.2084 7.33203 38.6751 7.33203 41.7084C7.33203 44.7416 9.79876 47.2084 12.832 47.2084C15.8653 47.2084 18.332 44.7416 18.332 41.7084C18.332 38.6751 15.8652 36.2084 12.832 36.2084ZM12.832 45.375C10.8098 45.375 9.1654 43.7305 9.1654 41.7084C9.1654 39.6862 10.8099 38.0417 12.832 38.0417C14.8541 38.0417 16.4987 39.6863 16.4987 41.7084C16.4987 43.7305 14.8541 45.375 12.832 45.375Z" fill="#2965B4"/>
<path d="M44 36.2084C40.9667 36.2084 38.5 38.6751 38.5 41.7084C38.5 44.7416 40.9667 47.2084 44 47.2084C47.0333 47.2084 49.5 44.7416 49.5 41.7084C49.5 38.6751 47.0333 36.2084 44 36.2084ZM44 45.375C41.9778 45.375 40.3334 43.7305 40.3334 41.7084C40.3334 39.6862 41.9779 38.0417 44 38.0417C46.0222 38.0417 47.6666 39.6863 47.6666 41.7084C47.6666 43.7305 46.0222 45.375 44 45.375Z" fill="#2965B4"/>
<path d="M54.8529 31.1291L46.6029 18.2958C46.4342 18.0336 46.1437 17.875 45.8319 17.875H35.7487C35.2417 17.875 34.832 18.2857 34.832 18.7916V41.7083C34.832 42.2152 35.2417 42.6249 35.7487 42.6249H39.4153V40.7915H36.6653V19.7084H45.3314L53.1653 31.8945V40.7917H48.5819V42.625H54.0819C54.5889 42.625 54.9986 42.2153 54.9986 41.7084V31.625C54.9987 31.4499 54.9483 31.2766 54.8529 31.1291Z" fill="#2965B4"/>
<path d="M40.3333 29.7916V23.375H47.6666V21.5416H39.4166C38.9097 21.5416 38.5 21.9523 38.5 22.4583V30.7083C38.5 31.2152 38.9097 31.6249 39.4166 31.6249H53.1666V29.7915H40.3333V29.7916Z" fill="#2965B4"/>
<path d="M35.75 11.4584H0.916631C0.410674 11.4584 0 11.869 0 12.375V41.7084C0 42.2153 0.410674 42.625 0.916631 42.625H8.25V40.7916H1.83337V13.2916H34.8334V40.7916H17.4166V42.625H35.75C36.2569 42.625 36.6666 42.2153 36.6666 41.7084V12.375C36.6666 11.869 36.2569 11.4584 35.75 11.4584Z" fill="#2965B4"/>
<path d="M6.41602 37.125H0.916016V38.9584H6.41602V37.125Z" fill="#2965B4"/>
<path d="M34.8334 37.125H19.25V38.9584H34.8334V37.125Z" fill="#2965B4"/>
<path d="M54.0846 37.125H50.418V38.9584H54.0846V37.125Z" fill="#2965B4"/>
<path d="M35.7494 15.125H3.66602V16.9584H35.7494V15.125Z" fill="#2965B4"/>
<path d="M13.7494 40.7916H11.916V42.625H13.7494V40.7916Z" fill="#2965B4"/>
<path d="M44.9174 40.7916H43.084V42.625H44.9174V40.7916Z" fill="#2965B4"/>
<path d="M16.4994 7.79166H3.66602V9.62502H16.4994V7.79166Z" fill="#2965B4"/>
<path d="M1.83337 7.79166H0V9.62502H1.83337V7.79166Z" fill="#2965B4"/>
</svg>
