<svg width="48" height="48" viewBox="0 0 48 48" fill="none" xmlns="http://www.w3.org/2000/svg">
<g clip-path="url(#clip0)">
<path d="M47.7242 0.274594C47.5483 0.0988125 47.3098 0 47.0611 0L23.9992 0.00121875C23.4815 0.00121875 23.0617 0.421031 23.0617 0.938719V3.61969L14.1753 6.00084C13.6751 6.13491 13.3783 6.64894 13.5124 7.149L18.118 24.3373L14.1337 28.3216C13.6267 27.5812 12.7752 27.0942 11.8121 27.0942H2.81241C1.26159 27.0942 0 28.3559 0 29.9066V45.1875C0 46.7383 1.26159 48 2.81241 48H11.8122C13.1297 48 14.238 47.0891 14.5417 45.8644L15.6564 46.8365C16.517 47.5868 17.6195 48.0001 18.7612 48.0001H47.0613C47.579 48.0001 47.9988 47.5803 47.9988 47.0626V0.9375C47.9986 0.688875 47.9 0.450375 47.7242 0.274594ZM12.7495 45.1876C12.7495 45.7044 12.329 46.1251 11.812 46.1251H2.81231C2.29537 46.1251 1.87481 45.7045 1.87481 45.1876V29.9067C1.87481 29.3898 2.29537 28.9692 2.81231 28.9692H6.37472V39.7688C6.37472 40.2864 6.79453 40.7063 7.31222 40.7063C7.82991 40.7063 8.24972 40.2864 8.24972 39.7688V28.9692H11.8121C12.3291 28.9692 12.7496 29.3898 12.7496 29.9067V45.1876H12.7495ZM15.5661 7.56928L23.0617 5.56078V9.03469L22.4334 9.20306C22.1932 9.26747 21.9885 9.4245 21.8642 9.63984C21.7399 9.85519 21.7061 10.111 21.7705 10.3512C22.1308 11.6957 21.3301 13.0825 19.9856 13.4428C19.7452 13.5073 19.5401 13.6646 19.4159 13.8804C19.2917 14.0962 19.2582 14.3525 19.3232 14.5928L22.9775 28.1245H21.0959L20.1262 24.331C20.0954 24.2103 20.0414 24.099 19.9691 24.0022L15.5661 7.56928ZM23.0617 13.334V21.2447L21.3518 14.9133C22.0661 14.5445 22.6507 13.9927 23.0617 13.334ZM36.5302 46.125H18.7611C18.0725 46.125 17.4075 45.8758 16.8885 45.4233L14.6245 43.4488V30.4825L18.7175 26.3896L19.4598 29.294C19.5659 29.709 19.9397 29.9993 20.368 29.9993L38.7997 30.0004C39.5234 30.0004 40.1122 30.5891 40.1122 31.3129C40.1122 32.0366 39.5234 32.6254 38.7997 32.6254H29.3553C28.8376 32.6254 28.4178 33.0452 28.4178 33.5629C28.4178 34.0806 28.8376 34.5004 29.3553 34.5004H41.734C42.4578 34.5004 43.0465 35.0891 43.0465 35.8129C43.0465 36.5366 42.4578 37.1254 41.734 37.1254H29.3553C28.8376 37.1254 28.4178 37.5452 28.4178 38.0629C28.4178 38.5806 28.8376 39.0004 29.3553 39.0004H39.7281C40.4518 39.0004 41.0406 39.5891 41.0406 40.3129C41.0406 41.0366 40.4518 41.6254 39.7281 41.6254H29.3553C28.8376 41.6254 28.4178 42.0452 28.4178 42.5629C28.4178 43.0806 28.8376 43.5004 29.3553 43.5004H36.5302C37.254 43.5004 37.8427 44.0891 37.8427 44.8129C37.8427 45.5363 37.2539 46.125 36.5302 46.125ZM46.1238 46.125H46.1237H39.4338C39.6156 45.7244 39.7177 45.2803 39.7177 44.8125C39.7177 44.3447 39.6156 43.9006 39.4338 43.5H39.7281C41.4856 43.5 42.9155 42.0701 42.9155 40.3126C42.9155 39.8 42.7931 39.3156 42.5771 38.886C43.9267 38.5153 44.9213 37.2783 44.9213 35.8127C44.9213 35.1017 44.6872 34.4444 44.2922 33.9138V22.0319C44.2922 21.5142 43.8724 21.0944 43.3547 21.0944C42.837 21.0944 42.4172 21.5142 42.4172 22.0319V32.6999C42.1969 32.6516 41.9684 32.6254 41.7338 32.6254H41.7031C41.8849 32.2248 41.987 31.7807 41.987 31.3129C41.987 29.5553 40.5571 28.1255 38.7996 28.1255H37.2925C38.8927 27.4392 40.0166 25.8487 40.0166 24C40.0166 21.526 38.004 19.5133 35.53 19.5133C33.0562 19.5133 31.0434 21.526 31.0434 24C31.0434 25.8487 32.1674 27.4392 33.7675 28.1255H28.6429V10.2997C30.3176 9.93469 31.6391 8.61328 32.004 6.93844H39.056C39.4208 8.61328 40.7423 9.93469 42.4171 10.2997V13.2143C42.4171 13.732 42.8369 14.1518 43.3546 14.1518C43.8723 14.1518 44.2921 13.732 44.2921 13.2143V9.46266C44.2921 8.94497 43.8723 8.52516 43.3546 8.52516C41.9627 8.52516 40.8305 7.39275 40.8305 6.00094C40.8305 5.48325 40.4107 5.06344 39.893 5.06344H31.1671C30.6494 5.06344 30.2296 5.48325 30.2296 6.00094C30.2296 7.39284 29.0973 8.52516 27.7055 8.52516C27.1878 8.52516 26.768 8.94497 26.768 9.46266V28.1254H24.9368V1.87603L46.1238 1.875V46.125ZM35.5302 26.6117C34.0901 26.6117 32.9186 25.4401 32.9186 24.0001C32.9186 22.5601 34.0902 21.3884 35.5302 21.3884C36.9702 21.3884 38.1418 22.56 38.1418 24C38.1418 25.44 36.9703 26.6117 35.5302 26.6117Z" fill="#2965B4"/>
</g>
<defs>
<clipPath id="clip0">
<rect width="48" height="48" fill="white"/>
</clipPath>
</defs>
</svg>
