<svg width="48" height="49" viewBox="0 0 48 49" fill="none" xmlns="http://www.w3.org/2000/svg">
<path d="M24 36.9414C23.4825 36.9414 23.0625 37.3702 23.0625 37.8984C23.0625 38.4267 23.4825 38.8555 24 38.8555C24.5175 38.8555 24.9375 38.4267 24.9375 37.8984C24.9375 37.3702 24.5175 36.9414 24 36.9414Z" fill="#2965B4"/>
<path d="M43.9769 5.8733C41.6699 4.92479 38.6705 4.40234 35.5312 4.40234C32.392 4.40234 29.3926 4.92479 27.0856 5.8733C25.7223 6.43383 24.6814 7.11888 24 7.88756C23.3186 7.11888 22.2777 6.43393 20.9144 5.8734C18.6074 4.92479 15.608 4.40234 12.4688 4.40234C9.32953 4.40234 6.33009 4.92479 4.02309 5.8733C1.42875 6.94001 0 8.4569 0 10.1445V33.1133C0 34.8009 1.42875 36.3178 4.02309 37.3845C6.16875 38.2667 8.91356 38.7797 11.8125 38.8472V38.8555C11.8125 42.1291 17.052 44.5977 24 44.5977C30.948 44.5977 36.1875 42.1291 36.1875 38.8555V38.8472C39.0864 38.7797 41.8312 38.2667 43.9769 37.3845C46.5713 36.3178 48 34.8009 48 33.1133V10.1445C48 8.4569 46.5713 6.94001 43.9769 5.8733ZM46.125 27.3711C46.125 28.1881 45.0335 29.1444 43.2764 29.8668C41.3747 30.6487 38.8215 31.1218 36.1875 31.1897V27.3711C36.1875 27.3683 36.1873 27.3655 36.1873 27.3629C39.0863 27.2954 41.8312 26.7824 43.977 25.9001C44.8192 25.5539 45.5376 25.16 46.1251 24.7283L46.125 27.3711ZM23.0625 15.8867C23.0625 16.7037 21.971 17.66 20.2139 18.3825C18.1545 19.2292 15.3315 19.7148 12.4688 19.7148C9.606 19.7148 6.783 19.2292 4.72359 18.3825C2.96653 17.66 1.875 16.7037 1.875 15.8867V13.244C2.46253 13.6756 3.18094 14.0695 4.02309 14.4158C6.33009 15.3643 9.32953 15.8867 12.4688 15.8867C15.608 15.8867 18.6074 15.3643 20.9144 14.4158C21.7566 14.0695 22.475 13.6756 23.0625 13.244V15.8867ZM4.02309 20.1579C6.33009 21.1065 9.32953 21.6289 12.4688 21.6289C15.608 21.6289 18.6074 21.1065 20.9144 20.1579C21.7566 19.8117 22.475 19.4178 23.0625 18.9862V21.6458C20.6372 21.7297 18.3113 22.136 16.43 22.8124C14.5431 23.4908 13.1853 24.3955 12.4469 25.4567C9.59166 25.4543 6.77775 24.9692 4.72359 24.1247C2.96653 23.4022 1.875 22.4459 1.875 21.6289V18.9862C2.46253 19.4178 3.18094 19.8117 4.02309 20.1579ZM1.875 24.7283C2.46253 25.16 3.18094 25.5539 4.02309 25.9001C6.16884 26.7823 8.91375 27.2953 11.8128 27.3629C11.8128 27.3656 11.8126 27.3684 11.8126 27.3711V31.1897C9.1785 31.1218 6.62541 30.6487 4.72369 29.8668C2.96653 29.1444 1.875 28.1881 1.875 27.3711V24.7283ZM13.7867 26.9009C14.4815 25.2503 18.4916 23.543 24 23.543C29.5084 23.543 33.5185 25.2503 34.2126 26.899C34.2799 27.0599 34.3125 27.2142 34.3125 27.3711C34.3125 28.2125 33.2963 29.1472 31.5942 29.8711C29.5808 30.7276 26.8838 31.1992 24 31.1992C21.1162 31.1992 18.4192 30.7276 16.4058 29.8711C14.7037 29.1472 13.6875 28.2125 13.6875 27.3711C13.6875 27.2142 13.7202 27.0599 13.7867 26.9009ZM46.125 21.6289C46.125 22.4459 45.0335 23.4022 43.2764 24.1247C41.2223 24.9692 38.4085 25.4543 35.5534 25.4567C34.8156 24.3961 33.4576 23.491 31.57 22.8124C29.6888 22.1359 27.3628 21.7297 24.9375 21.6458V18.9862C25.525 19.4178 26.2434 19.8117 27.0856 20.1579C29.3926 21.1065 32.392 21.6289 35.5312 21.6289C38.6705 21.6289 41.6699 21.1065 43.9769 20.1579C44.8191 19.8117 45.5375 19.4178 46.125 18.9862V21.6289ZM46.125 15.8867C46.125 16.7037 45.0335 17.66 43.2764 18.3825C41.217 19.2292 38.394 19.7148 35.5312 19.7148C32.6685 19.7148 29.8455 19.2292 27.7861 18.3825C26.029 17.66 24.9375 16.7037 24.9375 15.8867V13.244C25.525 13.6756 26.2434 14.0695 27.0856 14.4158C29.3926 15.3643 32.392 15.8867 35.5312 15.8867C38.6705 15.8867 41.6699 15.3643 43.9769 14.4158C44.8191 14.0695 45.5375 13.6756 46.125 13.244V15.8867ZM27.7861 7.64878C29.8455 6.802 32.6685 6.31641 35.5312 6.31641C38.394 6.31641 41.217 6.802 43.2764 7.64878C45.0335 8.37125 46.125 9.32751 46.125 10.1445C46.125 10.9615 45.0335 11.9178 43.2764 12.6403C41.217 13.4871 38.394 13.9727 35.5312 13.9727C32.6685 13.9727 29.8455 13.4871 27.7861 12.6403C26.029 11.9178 24.9375 10.9615 24.9375 10.1445C24.9375 9.32751 26.029 8.37125 27.7861 7.64878ZM4.72359 7.64878C6.783 6.802 9.606 6.31641 12.4688 6.31641C15.3315 6.31641 18.1545 6.802 20.2139 7.64878C21.971 8.37125 23.0625 9.32751 23.0625 10.1445C23.0625 10.9615 21.971 11.9178 20.2139 12.6403C18.1545 13.4871 15.3315 13.9727 12.4688 13.9727C9.606 13.9727 6.783 13.4871 4.72359 12.6403C2.96653 11.9178 1.875 10.9615 1.875 10.1445C1.875 9.32751 2.96653 8.37125 4.72359 7.64878ZM4.72359 35.609C2.96653 34.8866 1.875 33.9303 1.875 33.1133V30.4705C2.46253 30.9022 3.18094 31.2961 4.02309 31.6423C6.16875 32.5245 8.91356 33.0375 11.8125 33.1051V36.932C9.17841 36.864 6.62531 36.391 4.72359 35.609ZM31.5942 41.3555C29.5808 42.212 26.8838 42.6836 24 42.6836C21.1162 42.6836 18.4192 42.212 16.4058 41.3555C14.7037 40.6315 13.6875 39.6969 13.6875 38.8555V36.2685C13.8998 36.4254 14.1345 36.5813 14.3948 36.735C15.8506 37.595 17.8314 38.2311 20.1232 38.5745C20.1695 38.5814 20.2152 38.5847 20.2606 38.5847C20.7181 38.5847 21.1185 38.2424 21.1869 37.7666C21.2621 37.2436 20.9077 36.7575 20.3956 36.6807C16.0386 36.0277 13.6875 34.3554 13.6875 33.1133V30.5178C15.8094 32.1028 19.555 33.1133 24 33.1133C28.445 33.1133 32.1906 32.1028 34.3125 30.5178V33.1133C34.3125 34.3554 31.9614 36.0277 27.6044 36.6807C27.0922 36.7575 26.7378 37.2436 26.8131 37.7666C26.8815 38.2425 27.2819 38.5847 27.7394 38.5847C27.7847 38.5847 27.8306 38.5814 27.8767 38.5745C30.1685 38.2311 32.1493 37.5951 33.6052 36.735C33.8654 36.5813 34.1002 36.4254 34.3125 36.2685V38.8555C34.3125 39.6969 33.2963 40.6315 31.5942 41.3555ZM43.2764 35.609C41.3747 36.3909 38.8215 36.864 36.1875 36.9319V33.105C39.0864 33.0374 41.8312 32.5244 43.9769 31.6422C44.8191 31.296 45.5375 30.9021 46.125 30.4704V33.1133C46.125 33.9303 45.0335 34.8866 43.2764 35.609Z" fill="#2965B4"/>
</svg>
