<svg width="54" height="54" viewBox="0 0 54 54" fill="none" xmlns="http://www.w3.org/2000/svg">
<g clip-path="url(#clip0)">
<path d="M51.3093 26.9817L48.8594 26.6749C48.1145 24.8526 47.0445 23.167 45.7145 21.7086L47.5158 14.0775C47.5898 13.7639 47.5164 13.4337 47.3165 13.181C47.1165 12.9282 46.812 12.7808 46.4898 12.7806L46.2593 12.7805C46.258 12.7805 46.257 12.7805 46.2557 12.7805C43.2655 12.7805 40.5707 14.6618 39.5107 17.4213C38.7611 17.1234 37.9904 16.8779 37.2044 16.692C36.6376 16.558 36.0694 16.9086 35.9353 17.4756C35.8013 18.0425 36.1521 18.6107 36.719 18.7447C39.4037 19.3798 41.7986 20.7374 43.6862 22.6213C43.7552 22.7224 43.8412 22.8118 43.9422 22.8842C45.3182 24.3285 46.4059 26.0613 47.1115 28.0032C47.2466 28.3753 47.579 28.6404 47.9717 28.6896L51.0474 29.0746C51.5282 29.1349 51.8907 29.5457 51.8907 30.0302V35.3476C51.8907 35.8321 51.5281 36.2429 51.0474 36.3032L48.1973 36.66C47.7874 36.7112 47.4451 36.9971 47.3217 37.3915C46.4762 40.0931 44.8697 42.482 42.6756 44.2999C42.4338 44.5003 42.2938 44.798 42.2938 45.112V50.9417C42.2938 51.4649 41.8682 51.8906 41.345 51.8906H35.2271C34.7039 51.8906 34.2782 51.4649 34.2782 50.9417V48.7199C34.2782 48.1374 33.8059 47.6652 33.2235 47.6652H24.3627C23.7803 47.6652 23.308 48.1374 23.308 48.7199V50.9417C23.308 51.4649 22.8823 51.8906 22.3591 51.8906H16.2411C15.718 51.8906 15.2923 51.4649 15.2923 50.9417V46.8253C15.2923 46.4386 15.0806 46.0829 14.7408 45.8985C10.0072 43.3284 7.06639 38.3892 7.06639 33.0084C7.06639 24.9266 13.6414 18.3515 21.7232 18.3515H23.0449C23.6273 18.3515 24.0996 17.8794 24.0996 17.2969C24.0996 16.7144 23.6273 16.2422 23.0449 16.2422H21.7232C13.8941 16.2422 7.3018 21.6366 5.46612 28.9037H4.69335C3.26847 28.9037 2.10937 27.7445 2.10937 26.3197C2.10937 24.8949 3.26847 23.7357 4.69335 23.7357C5.27575 23.7357 5.74804 23.2635 5.74804 22.681C5.74804 22.0985 5.27575 21.6264 4.69335 21.6264C2.10547 21.6264 0 23.7317 0 26.3197C0 28.9077 2.10547 31.0131 4.69335 31.0131H5.07631C4.99826 31.6676 4.95702 32.3332 4.95702 33.0084C4.95702 38.9515 8.09302 44.4235 13.1828 47.4394V50.9418C13.1828 52.6281 14.5548 54 16.241 54H22.3589C24.0452 54 25.4172 52.6281 25.4172 50.9418V49.7747H32.1686V50.9418C32.1686 52.6281 33.5406 54 35.2269 54H41.3448C43.0311 54 44.403 52.6281 44.403 50.9418V45.5983C46.5444 43.715 48.1604 41.3393 49.1168 38.6707L51.3092 38.3962C52.8431 38.2042 53.9999 36.8936 53.9999 35.3476V30.0302C53.9999 28.4843 52.8432 27.1737 51.3093 26.9817ZM43.9433 20.0303C43.1565 19.3867 42.3138 18.8166 41.4274 18.327C42.0101 16.6527 43.4314 15.4069 45.1264 15.0179L43.9433 20.0303Z" fill="#2965B4"/>
<path d="M41.9838 26.7816C41.7878 26.5854 41.5157 26.4726 41.2383 26.4726C40.9609 26.4726 40.6888 26.5854 40.4926 26.7816C40.2964 26.9778 40.1836 27.2499 40.1836 27.5273C40.1836 27.8047 40.2963 28.0768 40.4926 28.2729C40.6889 28.4691 40.9609 28.582 41.2383 28.582C41.5157 28.582 41.7878 28.4691 41.9838 28.2729C42.18 28.0768 42.293 27.8047 42.293 27.5273C42.293 27.2499 42.18 26.9778 41.9838 26.7816Z" fill="#2965B4"/>
<path d="M30.9277 6.15231C30.3453 6.15231 29.873 6.6245 29.873 7.207V11.3904C29.873 11.9729 30.3453 12.4451 30.9277 12.4451C31.5101 12.4451 31.9824 11.9729 31.9824 11.3904V7.207C31.9824 6.6246 31.5102 6.15231 30.9277 6.15231Z" fill="#2965B4"/>
<path d="M31.6733 2.63461C31.4772 2.43844 31.2051 2.32559 30.9277 2.32559C30.6502 2.32559 30.3782 2.43844 30.1821 2.63461C29.9859 2.83079 29.873 3.1029 29.873 3.38028C29.873 3.65871 29.9858 3.92977 30.1821 4.12594C30.3782 4.32211 30.6502 4.43496 30.9277 4.43496C31.2051 4.43496 31.4772 4.32211 31.6733 4.12594C31.8695 3.92977 31.9824 3.65766 31.9824 3.38028C31.9824 3.1029 31.8695 2.83184 31.6733 2.63461Z" fill="#2965B4"/>
<path d="M22.3594 0C21.777 0 21.3047 0.472183 21.3047 1.05469V2.84765C21.3047 3.43015 21.777 3.90234 22.3594 3.90234C22.9418 3.90234 23.4141 3.43015 23.4141 2.84765V1.05469C23.4141 0.472183 22.9419 0 22.3594 0Z" fill="#2965B4"/>
<path d="M12.0176 33.0084C12.0176 32.4259 11.5453 31.9537 10.9629 31.9537C10.3805 31.9537 9.9082 32.4259 9.9082 33.0084L9.90831 33.0644C9.91189 33.6446 10.3834 34.1125 10.9629 34.1125C10.965 34.1125 10.9672 34.1125 10.9695 34.1125C11.5519 34.1088 12.0213 33.6337 12.0177 33.0512L12.0176 33.0084Z" fill="#2965B4"/>
<path d="M16.6846 41.3068C14.8512 40.1911 13.4201 38.4769 12.6551 36.4801C12.4466 35.936 11.8366 35.664 11.2928 35.8726C10.7489 36.081 10.4769 36.6908 10.6853 37.2348C11.6166 39.6655 13.3578 41.7516 15.5881 43.1088C15.7594 43.213 15.9485 43.2626 16.1353 43.2626C16.4913 43.2626 16.8388 43.0824 17.0374 42.7561C17.3402 42.2585 17.1821 41.6096 16.6846 41.3068Z" fill="#2965B4"/>
<path d="M22.3594 5.06796C19.9168 5.06796 17.9297 7.0551 17.9297 9.49764C17.9297 11.9402 19.9168 13.9273 22.3594 13.9273C24.8019 13.9273 26.789 11.9402 26.789 9.49764C26.789 7.0551 24.8019 5.06796 22.3594 5.06796ZM22.3594 11.8179C21.0799 11.8179 20.0391 10.7771 20.0391 9.49764C20.0391 8.2182 21.0799 7.17733 22.3594 7.17733C23.6388 7.17733 24.6797 8.2182 24.6797 9.49764C24.6797 10.7771 23.6388 11.8179 22.3594 11.8179Z" fill="#2965B4"/>
<path d="M35.6484 22.3593H34.6992C35.1162 21.684 35.3575 20.8893 35.3575 20.039C35.3575 17.5965 33.3704 15.6093 30.9278 15.6093C28.4853 15.6093 26.4982 17.5965 26.4982 20.039C26.4981 20.8893 26.7394 21.684 27.1564 22.3593H21.9375C21.3551 22.3593 20.8828 22.8315 20.8828 23.414C20.8828 23.9965 21.3551 24.4687 21.9375 24.4687H35.6484C36.2308 24.4687 36.7031 23.9965 36.7031 23.414C36.7031 22.8315 36.2309 22.3593 35.6484 22.3593ZM30.9278 22.3593C29.6484 22.3593 28.6075 21.3185 28.6075 20.039C28.6075 18.7596 29.6484 17.7187 30.9278 17.7187C32.2073 17.7187 33.2482 18.7596 33.2482 20.039C33.2482 21.3185 32.2072 22.3593 30.9278 22.3593Z" fill="#2965B4"/>
</g>
<defs>
<clipPath id="clip0">
<rect width="54" height="54" fill="white"/>
</clipPath>
</defs>
</svg>
