<svg width="45" height="45" viewBox="0 0 45 45" fill="none" xmlns="http://www.w3.org/2000/svg">
<path d="M44.5455 17.3107L34.5 13.0057V4.5C34.5 4.3011 34.4209 4.11037 34.2803 3.96975L30.5303 0.21975C30.3896 0.079088 30.1989 4.24781e-05 30 0H2.25C1.65326 0 1.08097 0.237053 0.65901 0.65901C0.237053 1.08097 0 1.65326 0 2.25V42.75C0 43.3467 0.237053 43.919 0.65901 44.341C1.08097 44.7629 1.65326 45 2.25 45H32.25C32.8467 45 33.419 44.7629 33.841 44.341C34.2629 43.919 34.5 43.3467 34.5 42.75V40.8855L38.4045 38.1C40.4431 36.6408 42.1047 34.7169 43.2517 32.4877C44.3987 30.2585 44.998 27.788 45 25.281V18C45 17.8532 44.9569 17.7097 44.8761 17.5872C44.7953 17.4647 44.6804 17.3686 44.5455 17.3107ZM33 4.8105V5.25H29.25V1.5H29.6895L33 4.8105ZM32.25 43.5H2.25C2.05109 43.5 1.86032 43.421 1.71967 43.2803C1.57902 43.1397 1.5 42.9489 1.5 42.75V2.25C1.5 2.05109 1.57902 1.86032 1.71967 1.71967C1.86032 1.57902 2.05109 1.5 2.25 1.5H27.75V6C27.75 6.19891 27.829 6.38968 27.9697 6.53033C28.1103 6.67098 28.3011 6.75 28.5 6.75H33V13.0057L22.9545 17.3107C22.8196 17.3686 22.7047 17.4647 22.6239 17.5872C22.5431 17.7097 22.5 17.8532 22.5 18V25.281C22.502 27.788 23.1013 30.2585 24.2483 32.4877C25.3953 34.7169 27.0569 36.6408 29.0955 38.1L33 40.8855V42.75C33 42.9489 32.921 43.1397 32.7803 43.2803C32.6397 43.421 32.4489 43.5 32.25 43.5ZM43.5 25.281C43.4978 27.5488 42.9554 29.7835 41.9177 31.7999C40.8801 33.8164 39.377 35.5567 37.533 36.8767L33.75 39.5783L29.967 36.8783C28.1228 35.5581 26.6196 33.8175 25.5819 31.8008C24.5443 29.784 24.002 27.5491 24 25.281V18.4943L33.75 14.316L43.5 18.4943V25.281Z" fill="#2965B4"/>
<path d="M33.7295 16.0534L26.4568 19.0529C26.3218 19.1087 26.2062 19.2048 26.1248 19.329C26.0434 19.4532 25.9999 19.5997 26 19.7496V24.4813C25.9957 26.3938 26.4108 28.2827 27.2143 30.0065C28.0178 31.7303 29.1889 33.2445 30.64 34.4359L33.5455 36.8355C33.6744 36.942 33.8348 37 34 37C34.1652 37 34.3256 36.942 34.4545 36.8355L37.36 34.4359C38.8111 33.2445 39.9822 31.7303 40.7857 30.0065C41.5892 28.2827 42.0043 26.3938 42 24.4813V19.7496C42.0001 19.5997 41.9566 19.4532 41.8752 19.329C41.7938 19.2048 41.6782 19.1087 41.5432 19.0529L34.2705 16.0534C34.0968 15.9822 33.9032 15.9822 33.7295 16.0534ZM40.5454 20.2572V24.4813C40.5494 26.1687 40.1832 27.8352 39.4743 29.3561C38.7653 30.877 37.732 32.2129 36.4516 33.2638L34 35.287L31.5484 33.2623C30.2682 32.2115 29.235 30.8759 28.5261 29.3553C27.8171 27.8346 27.4508 26.1684 27.4546 24.4813V20.2572L34 17.5577L40.5454 20.2572Z" fill="#2965B4"/>
<path d="M3.76667 13H25.2333C25.4367 13 25.6317 12.9247 25.7754 12.7908C25.9192 12.6568 26 12.4752 26 12.2857V3.71429C26 3.52485 25.9192 3.34316 25.7754 3.20921C25.6317 3.07526 25.4367 3 25.2333 3H3.76667C3.56333 3 3.36833 3.07526 3.22455 3.20921C3.08077 3.34316 3 3.52485 3 3.71429V12.2857C3 12.4752 3.08077 12.6568 3.22455 12.7908C3.36833 12.9247 3.56333 13 3.76667 13ZM4.53333 4.42857H24.4667V11.5714H4.53333V4.42857Z" fill="#2965B4"/>
<path d="M20.25 31H3.75C3.55109 31 3.36032 31.0828 3.21967 31.2301C3.07902 31.3775 3 31.5773 3 31.7857V41.2143C3 41.4227 3.07902 41.6225 3.21967 41.7699C3.36032 41.9172 3.55109 42 3.75 42H20.25C20.4489 42 20.6397 41.9172 20.7803 41.7699C20.921 41.6225 21 41.4227 21 41.2143V31.7857C21 31.5773 20.921 31.3775 20.7803 31.2301C20.6397 31.0828 20.4489 31 20.25 31ZM19.5 40.4286H4.5V32.5714H19.5V40.4286Z" fill="#2965B4"/>
<path d="M3 17H21V19H3V17Z" fill="#2965B4"/>
<path d="M3 22H21V23H3V22Z" fill="#2965B4"/>
<path d="M3 26H21V28H3V26Z" fill="#2965B4"/>
</svg>
