<svg width="44" height="44" viewBox="0 0 44 44" fill="none" xmlns="http://www.w3.org/2000/svg">
<path d="M10 18V16.5454C6.8418 16.5454 4.27273 13.6094 4.27273 9.99997H3C3 14.4108 6.14049 18 10 18Z" fill="#2965B4"/>
<path d="M11 16C13.7563 16 16 13.7563 16 11C16 8.24361 13.7563 5.99994 11 5.99994C8.24365 5.99994 6 8.24361 6 11C6 13.7563 8.24365 16 11 16ZM11 7.42852C12.9692 7.42852 14.5714 9.03079 14.5714 11C14.5714 12.9692 12.9692 14.5714 11 14.5714C9.03083 14.5714 7.42857 12.9692 7.42857 11C7.42857 9.03079 9.03083 7.42852 11 7.42852Z" fill="#2965B4"/>
<path d="M11 13C12.1025 13 13 12.1026 13 11C13 9.89742 12.1025 8.99994 11 8.99994C9.89746 8.99994 9 9.89742 9 11C9 12.1026 9.89746 13 11 13ZM11 10.3333C11.3678 10.3333 11.6667 10.6321 11.6667 11C11.6667 11.3678 11.3678 11.6667 11 11.6667C10.6322 11.6667 10.3333 11.3678 10.3333 11C10.3333 10.6321 10.6322 10.3333 11 10.3333Z" fill="#2965B4"/>
<path d="M44 33.8587V28.5929L42.0796 27.9231C41.864 27.2148 41.582 26.5322 41.2365 25.8849L42.1208 24.0552L41.4354 23.3698C41.118 22.9529 40.5972 22.403 40.2032 22.0049C39.7128 21.509 39.1473 20.9708 38.7634 20.6347L34.0416 16.5055L34.4471 15.2899L36.0899 16.1119L38.8209 13.381L37.9989 11.7381L39.7419 11.157V7.29533L37.9989 6.71491L38.8209 5.07204L36.0899 2.3411L34.4471 3.16305L33.8666 1.41935H30.005L29.4246 3.16236L27.7817 2.34041L25.0508 5.07135L25.8727 6.71421L24.129 7.29464V7.83625L18.2877 2.72817C16.2772 0.968876 13.6991 0 11.027 0V0.0190587C10.8992 0.0149005 10.7744 0 10.6452 0C4.77542 0 0 4.77542 0 10.6452C0 10.7744 0.0149005 10.8992 0.0190587 11.027H0C0 13.6991 0.968876 16.2765 2.72817 18.287L7.83972 24.129H7.29464L6.71421 25.872L5.07135 25.0501L2.34041 27.781L3.16236 29.4239L1.41935 30.0043V33.866L3.16236 34.4464L2.34041 36.0892L5.07135 38.8202L6.71421 37.9982L7.29464 39.7419H11.1563L11.7367 37.9989L13.3796 38.8209L16.1105 36.0899L15.2886 34.4471L16.5121 34.0396L20.6316 38.7478C20.9545 39.1161 21.4386 39.629 21.8943 40.0881C22.3257 40.522 22.9197 41.0937 23.3653 41.4337L24.0531 42.1215L25.8828 41.2372C26.5297 41.582 27.2127 41.8647 27.9207 42.0803L28.5929 44H33.8587L34.5285 42.0796C35.2368 41.864 35.9194 41.582 36.5668 41.2365L38.3964 42.1208L42.1208 38.3964L41.2365 36.5668C41.5813 35.9194 41.864 35.2368 42.0796 34.5285L44 33.8587ZM21.2151 25.8849C20.8703 26.5322 20.5876 27.2148 20.372 27.9231L18.4516 28.5929V33.8587L20.372 34.5285C20.5876 35.2368 20.8696 35.9194 21.2151 36.5668L20.9999 37.0117L6.51046 20.4542C7.78219 20.9923 9.17972 21.2903 10.6452 21.2903C16.5149 21.2903 21.2903 16.5149 21.2903 10.6452C21.2903 9.17833 20.9923 7.78012 20.4535 6.50769L37.021 20.9958L36.5674 21.2151C35.9205 20.8703 35.2375 20.5876 34.5292 20.372L33.8587 18.4516H28.5929L27.9231 20.372C27.2148 20.5876 26.5322 20.8696 25.8849 21.2151L24.0552 20.3308L20.3308 24.0552L21.2151 25.8849ZM25.5484 8.31826L27.1777 7.77526L27.2969 7.46097C27.3319 7.36914 27.368 7.28043 27.4064 7.19241L27.544 6.8854L26.7768 5.351L28.0607 4.06713L29.5951 4.83433L29.9021 4.69676C29.9901 4.6576 30.0788 4.62226 30.1706 4.58726L30.4849 4.46806L31.0279 2.83871H32.8437L33.3867 4.46806L33.701 4.58726C33.7928 4.62226 33.8815 4.6583 33.9696 4.69676L34.2766 4.83433L35.811 4.06713L37.0949 5.351L36.3277 6.8854L36.4652 7.19241C36.5044 7.28043 36.5397 7.36914 36.5747 7.46097L36.6939 7.77526L38.3226 8.31826V10.134L36.6932 10.677L36.574 10.9913C36.539 11.0832 36.503 11.1719 36.4645 11.2599L36.327 11.5669L37.0942 13.1013L35.8103 14.3852L34.2759 13.618L33.9689 13.7555C33.8809 13.7947 33.7921 13.83 33.7003 13.865L33.386 13.9842L32.8836 15.493L25.5484 9.07749V8.31826ZM10.6452 1.41935C15.7321 1.41935 19.871 5.55822 19.871 10.6452C19.871 15.7321 15.7321 19.871 10.6452 19.871C5.55822 19.871 1.41935 15.7321 1.41935 10.6452C1.41935 5.55822 5.55822 1.41935 10.6452 1.41935ZM13.9836 33.386L13.8644 33.7003C13.8294 33.7921 13.7933 33.8809 13.7549 33.9689L13.6173 34.2759L14.3845 35.8103L13.1006 37.0942L11.5662 36.327L11.2592 36.4645C11.1712 36.5037 11.0825 36.539 10.9906 36.574L10.6763 36.6932L10.1333 38.3226H8.31757L7.77457 36.6932L7.46028 36.574C7.36845 36.539 7.27974 36.503 7.19172 36.4645L6.8847 36.327L5.351 37.0942L4.06713 35.8103L4.83433 34.2759L4.69676 33.9689C4.6576 33.8809 4.62226 33.7921 4.58726 33.7003L4.46806 33.386L2.83871 32.843V31.0272L4.46806 30.4842L4.58726 30.17C4.62226 30.0781 4.6583 29.9894 4.69676 29.9014L4.83433 29.5944L4.06713 28.0607L5.351 26.7768L6.8854 27.544L7.19241 27.4064C7.28043 27.3673 7.36914 27.3319 7.46097 27.2969L7.77526 27.1777L8.31826 25.5484H9.08235L15.4992 32.8815L13.9836 33.386ZM40.9101 33.4335L40.8127 33.7963C40.5871 34.6394 40.2544 35.444 39.8237 36.1887L39.6349 36.5144L40.4034 38.1053L38.1053 40.4034L36.5144 39.6349L36.1887 39.8237C35.444 40.2537 34.6387 40.5864 33.7963 40.8127L33.4335 40.9101L32.851 42.5806H29.6006L29.0181 40.9101L28.6553 40.8127C27.8122 40.5871 27.0076 40.2544 26.2629 39.8237L25.9372 39.6349L24.3463 40.4034L22.0482 38.1053L22.8168 36.5144L22.6279 36.1887C22.1979 35.444 21.8652 34.6387 21.6389 33.7963L21.5415 33.4335L19.871 32.851V29.6006L21.5415 29.0181L21.6389 28.6553C21.8645 27.8122 22.1972 27.0076 22.6279 26.2629L22.8168 25.9372L22.0482 24.3463L24.3463 22.0482L25.9372 22.8168L26.2629 22.6279C27.0076 22.1979 27.8129 21.8652 28.6553 21.6389L29.0181 21.5415L29.6006 19.871H32.851L33.4335 21.5415L33.7963 21.6389C34.6394 21.8645 35.444 22.1972 36.1887 22.6279L36.5144 22.8168L38.1053 22.0482L40.4034 24.3463L39.6349 25.9372L39.8237 26.2629C40.2537 27.0076 40.5864 27.8129 40.8127 28.6553L40.9101 29.0181L42.5806 29.6006V32.851L40.9101 33.4335Z" fill="#2965B4"/>
<path d="M31 24C27.1401 24 24 27.1401 24 31C24 34.8599 27.1401 38 31 38C34.8599 38 38 34.8599 38 31C38 27.1401 34.8599 24 31 24ZM31 36.6C27.9122 36.6 25.4 34.0878 25.4 31C25.4 27.9122 27.9122 25.4 31 25.4C34.0878 25.4 36.6 27.9122 36.6 31C36.6 34.0878 34.0878 36.6 31 36.6Z" fill="#2965B4"/>
<path d="M31 26.9999C28.7939 26.9999 27 28.7939 27 30.9999C27 33.206 28.7939 34.9999 31 34.9999C33.2061 34.9999 35 33.206 35 30.9999C35 28.7939 33.2061 26.9999 31 26.9999ZM31 33.6666C29.5293 33.6666 28.3333 32.4706 28.3333 30.9999C28.3333 29.5292 29.5293 28.3332 31 28.3332C32.4707 28.3332 33.6667 29.5292 33.6667 30.9999C33.6667 32.4706 32.4707 33.6666 31 33.6666Z" fill="#2965B4"/>
<path d="M35 9.49998C35 7.57017 33.4298 5.99994 31.5 5.99994C29.5702 5.99994 28 7.57017 28 9.49998C28 11.4298 29.5702 13 31.5 13C33.4298 13 35 11.4298 35 9.49998ZM29.4 9.49998C29.4 8.3423 30.3423 7.39996 31.5 7.39996C32.6577 7.39996 33.6 8.3423 33.6 9.49998C33.6 10.6577 32.6577 11.6 31.5 11.6C30.3423 11.6 29.4 10.6577 29.4 9.49998Z" fill="#2965B4"/>
<path d="M6 31.4999C6 33.4297 7.57021 34.9999 9.5 34.9999C11.4298 34.9999 13 33.4297 13 31.4999C13 29.5702 11.4298 27.9999 9.5 27.9999C7.57021 27.9999 6 29.5702 6 31.4999ZM11.6 31.4999C11.6 32.6576 10.6577 33.5999 9.5 33.5999C8.34233 33.5999 7.4 32.6576 7.4 31.4999C7.4 30.3423 8.34233 29.3999 9.5 29.3999C10.6577 29.3999 11.6 30.3423 11.6 31.4999Z" fill="#2965B4"/>
</svg>
