<svg width="50" height="47" viewBox="0 0 50 47" fill="none" xmlns="http://www.w3.org/2000/svg">
<path d="M49.9036 25.4852C49.4547 21.1108 47.4373 16.9869 44.223 13.873C41.4761 11.212 38.114 9.50199 34.5762 8.74164V6.33791C36.0211 5.98966 37.0952 4.72261 37.0952 3.21659C37.0952 1.44292 35.6057 0 33.7748 0H26.7435C24.9126 0 23.4231 1.44292 23.4231 3.21659C23.4231 4.72252 24.4971 5.98957 25.942 6.33791V8.74836C22.4151 9.51192 19.0641 11.2196 16.325 13.873C15.7255 14.4537 15.1728 15.0629 14.6668 15.696C14.6423 15.6942 14.6178 15.6924 14.5928 15.6924H7.63361C7.09435 15.6924 6.65703 16.116 6.65703 16.6385C6.65703 17.161 7.09435 17.5845 7.63361 17.5845H13.338C12.622 18.7458 12.0446 19.9654 11.6052 21.2208H0.976577C0.437311 21.2208 0 21.6443 0 22.1668C0 22.6893 0.437311 23.1129 0.976577 23.1129H11.0533C10.7718 24.3097 10.6103 25.5278 10.5686 26.7492H6.25009C5.71083 26.7492 5.27352 27.1728 5.27352 27.6953C5.27352 28.2178 5.71083 28.6413 6.25009 28.6413H10.5998C10.6822 29.8659 10.8854 31.0841 11.2095 32.2777H4.88289C4.34362 32.2777 3.90631 32.7012 3.90631 33.2237C3.90631 33.7463 4.34362 34.1698 4.88289 34.1698H11.8328C12.7908 36.6249 14.288 38.926 16.325 40.8993C19.5424 44.0162 23.8038 45.9709 28.324 46.4035C28.9691 46.4652 29.6147 46.4958 30.2594 46.4958C34.0702 46.4958 37.8326 45.4274 41.025 43.4134C41.477 43.1283 41.6048 42.5422 41.3105 42.1044C41.0161 41.6665 40.4112 41.5427 39.9592 41.8278C32.9711 46.2362 23.6123 45.283 17.706 39.5614C10.776 32.848 10.776 21.9245 17.706 15.2111C24.6359 8.49775 35.9118 8.49775 42.8419 15.2111C48.7403 20.9252 49.7296 29.9838 45.194 36.7502C44.9003 37.1884 45.0289 37.7744 45.4812 38.0588C45.9337 38.3434 46.5384 38.2188 46.8321 37.7806C49.2553 34.1653 50.3462 29.7987 49.9036 25.4852ZM25.3763 3.21668C25.3763 2.48633 25.9896 1.8922 26.7435 1.8922H33.7748C34.5287 1.8922 35.142 2.48633 35.142 3.21668C35.142 3.94704 34.5287 4.54116 33.7748 4.54116H33.5996H26.9186H26.7435C25.9896 4.54116 25.3763 3.94694 25.3763 3.21668ZM27.8951 8.42311V6.43327H32.623V8.4197C31.0531 8.23881 29.4648 8.23995 27.8951 8.42311Z" fill="#2965B4"/>
<path d="M30.2745 12.71C21.9211 12.71 15.125 19.2935 15.125 27.3859C15.125 35.4784 21.9211 42.0619 30.2745 42.0619C38.628 42.0619 45.4241 35.4784 45.4241 27.3859C45.4241 19.2935 38.628 12.71 30.2745 12.71ZM30.2745 40.1698C22.998 40.1698 17.0782 34.435 17.0782 27.3859C17.0782 20.3369 22.998 14.6021 30.2745 14.6021C37.5511 14.6021 43.4709 20.3369 43.4709 27.3859C43.4709 34.435 37.5511 40.1698 30.2745 40.1698Z" fill="#2965B4"/>
<path d="M36.4514 20.0637L31.6144 24.7494C31.2099 24.5556 30.7549 24.4462 30.274 24.4462C29.7929 24.4462 29.338 24.5556 28.9335 24.7494L26.7688 22.6523C26.3873 22.2829 25.7691 22.2829 25.3876 22.6523C25.0062 23.0217 25.0062 23.6208 25.3876 23.9902L27.5524 26.0873C27.3523 26.4792 27.2394 26.9199 27.2394 27.3859C27.2394 29.0068 28.6006 30.3256 30.274 30.3256C31.9473 30.3256 33.3086 29.0068 33.3086 27.3859C33.3086 26.9199 33.1956 26.4792 32.9956 26.0873L37.6906 21.5391L37.8325 21.4016C38.2138 21.0322 38.2138 20.4331 37.8325 20.0637C37.4511 19.6943 36.833 19.6943 36.4514 20.0637ZM30.274 28.4336C29.6777 28.4336 29.1925 27.9636 29.1925 27.386C29.1925 26.8083 29.6777 26.3383 30.274 26.3383C30.8703 26.3383 31.3554 26.8083 31.3554 27.386C31.3554 27.9636 30.8703 28.4336 30.274 28.4336Z" fill="#2965B4"/>
<path d="M40.7153 26.4515H39.8105C39.2713 26.4515 38.834 26.8751 38.834 27.3976C38.834 27.9201 39.2713 28.3436 39.8105 28.3436H40.7153C41.2546 28.3436 41.6919 27.9201 41.6919 27.3976C41.6919 26.8751 41.2546 26.4515 40.7153 26.4515Z" fill="#2965B4"/>
<path d="M20.7367 26.4285H19.832C19.2928 26.4285 18.8555 26.852 18.8555 27.3745C18.8555 27.8971 19.2928 28.3206 19.832 28.3206H20.7367C21.276 28.3206 21.7133 27.8971 21.7133 27.3745C21.7133 26.852 21.276 26.4285 20.7367 26.4285Z" fill="#2965B4"/>
<path d="M30.2852 19.0937C30.8244 19.0937 31.2618 18.6701 31.2618 18.1476V17.2712C31.2618 16.7487 30.8244 16.3252 30.2852 16.3252C29.7459 16.3252 29.3086 16.7487 29.3086 17.2712V18.1476C29.3086 18.6701 29.7459 19.0937 30.2852 19.0937Z" fill="#2965B4"/>
</svg>
