<svg width="48" height="43" viewBox="0 0 48 43" fill="none" xmlns="http://www.w3.org/2000/svg">
<path d="M19.904 19.051C19.5026 17.5818 17.8411 15.4058 17.0605 14.5015V16.3797C17.8132 16.7136 19.2489 18.3414 19.904 19.051Z" fill="#2F343A"/>
<path d="M19.904 21.6101C19.0976 19.9672 17.8245 18.5525 17.0605 17.9136V19.9672C18.3762 20.5605 18.6732 20.6974 19.904 21.6101Z" fill="#2F343A"/>
<path d="M19.904 24.4535C19.2674 23.2287 17.8245 22.2225 17.0605 21.6101V23.6661C18.3337 23.7536 18.5459 23.9286 19.904 24.4535Z" fill="#2F343A"/>
<path d="M19.904 26.703C19.0976 25.6415 17.3152 25.0665 17.0605 25.0222V27.0126C18.0367 26.7915 18.9279 26.6588 19.904 26.703Z" fill="#2F343A"/>
<path d="M25.6726 0.0188904C22.4753 1.29781 21.6281 7.54822 21.6281 10.4791C22.2183 6.34718 24.5863 3.50266 25.6726 2.55987V0.0188904Z" fill="#2F343A"/>
<path d="M25.6725 9.3938C23.2131 10.4391 21.6895 15.2746 21.6895 17.3651C22.6118 14.1064 24.2406 12.2599 25.7163 11.891L25.6725 9.3938Z" fill="#2F343A"/>
<path d="M25.6726 14.2129C23.2132 15.2582 21.6421 19.0443 21.6421 21.1349C22.9126 18.6815 24.1969 17.1228 25.6726 16.7539V14.2129Z" fill="#2F343A"/>
<path d="M25.585 18.9005C23.4509 19.8644 22.2554 22.4053 21.6421 23.8073C23.5697 22.6244 24.1518 22.1206 25.6726 21.4853L25.585 18.9005Z" fill="#2F343A"/>
<path d="M25.6287 23.4568C24.3582 23.632 21.9925 25.3844 21.642 26.4359C23.871 26.0534 24.0684 26.0667 25.7163 26.0416L25.6287 23.4568Z" fill="#2F343A"/>
<path d="M25.6726 4.74997C22.7212 6.4101 21.6281 11.5854 21.6281 14.3523C22.6118 10.3557 23.828 8.53835 25.6726 7.24714V4.74997Z" fill="#2F343A"/>
<path d="M42.1645 6.54353V9.12596C36.3602 4.10867 28.7674 2.66193 25.6726 2.55945V0.0184777C32.3131 -0.325846 39.4181 4.22754 42.1645 6.54353Z" fill="url(#paint0_linear)"/>
<path d="M42.226 15.908V18.4904C36.4217 13.4731 28.8112 11.9934 25.7164 11.891L25.6726 9.39379C32.3131 9.04947 39.4796 13.592 42.226 15.908Z" fill="url(#paint1_linear)"/>
<path d="M42.226 11.235V13.8174C36.4217 8.80014 28.7674 7.3496 25.6726 7.24712V4.74995C32.3131 4.40563 39.4796 8.91901 42.226 11.235Z" fill="url(#paint2_linear)"/>
<path d="M42.2875 20.7224V23.3049C36.4832 18.2876 28.7674 16.8564 25.6726 16.7539V14.2129C32.3131 13.8686 39.5411 18.4064 42.2875 20.7224Z" fill="url(#paint3_linear)"/>
<path d="M42.226 25.4998V28.0823C36.4217 23.065 28.7674 21.5878 25.6726 21.4853L25.585 18.9006C32.2255 18.5562 39.4796 23.1839 42.226 25.4998Z" fill="url(#paint4_linear)"/>
<path d="M42.226 30.0499V32.6323C36.4217 27.615 28.781 26.1557 25.6862 26.0533L25.6288 23.4568C32.2693 23.1125 39.4796 27.7339 42.226 30.0499Z" fill="url(#paint5_linear)"/>
<path d="M17.0606 14.5015C10.8047 15.4161 6.3172 19.2503 4.83386 21.0531V23.0318C9.63816 18.2478 14.9724 16.6707 17.0606 16.4802V14.5015Z" fill="url(#paint6_linear)"/>
<path d="M17.0606 21.6101C10.8267 22.5108 6.31198 26.4165 4.83386 28.1919V30.1404C9.62124 25.4293 14.5636 23.9051 17.0606 23.6453V21.6101Z" fill="url(#paint7_linear)"/>
<path d="M17.0606 17.9136C10.8267 18.8282 6.31198 22.6625 4.83386 24.4653V26.4439C9.62124 21.6599 14.9798 20.0829 17.0606 19.8923V17.9136Z" fill="url(#paint8_linear)"/>
<path d="M17.0606 25.0222C10.8267 25.9368 6.31198 29.771 4.83386 31.5738V33.5525C9.62124 28.7685 14.9798 27.1914 17.0606 27.0009V25.0222Z" fill="url(#paint9_linear)"/>
<path d="M24.2361 27.5935C9.83494 27.1897 1.90259 36.8739 0 41.5141C1.37572 39.049 6.7703 33.5185 16.4647 30.9432C33.4651 27.5326 44.0377 36.7289 47.7697 41.5141C45.7061 37.1639 38.6373 27.9974 24.2361 27.5935Z" fill="#2F343A"/>
<path d="M16.2849 33.2759C7.28417 33.0204 2.32645 39.1472 1.13733 42.0828C1.99715 40.5233 5.36877 37.0243 11.4278 35.3951C22.053 33.2374 28.6609 39.0554 30.9934 42.0828C29.7037 39.3306 25.2856 33.5314 16.2849 33.2759Z" fill="#2965B4"/>
<defs>
<linearGradient id="paint0_linear" x1="25.7161" y1="1.06179" x2="42.1676" y2="6.81265" gradientUnits="userSpaceOnUse">
<stop stop-color="#2F343A"/>
<stop offset="1" stop-color="#2965B4"/>
</linearGradient>
<linearGradient id="paint1_linear" x1="25.7163" y1="10.4358" x2="42.2113" y2="16.2303" gradientUnits="userSpaceOnUse">
<stop stop-color="#2F343A"/>
<stop offset="1" stop-color="#2965B4"/>
</linearGradient>
<linearGradient id="paint2_linear" x1="25.7163" y1="5.78847" x2="42.1997" y2="11.5974" gradientUnits="userSpaceOnUse">
<stop stop-color="#2F343A"/>
<stop offset="1" stop-color="#2965B4"/>
</linearGradient>
<linearGradient id="paint3_linear" x1="25.7165" y1="15.2544" x2="42.2574" y2="21.0895" gradientUnits="userSpaceOnUse">
<stop stop-color="#2F343A"/>
<stop offset="1" stop-color="#2965B4"/>
</linearGradient>
<linearGradient id="paint4_linear" x1="25.6289" y1="19.9527" x2="42.2257" y2="25.7598" gradientUnits="userSpaceOnUse">
<stop stop-color="#2F343A"/>
<stop offset="1" stop-color="#2965B4"/>
</linearGradient>
<linearGradient id="paint5_linear" x1="25.6726" y1="24.5083" x2="42.2328" y2="30.2912" gradientUnits="userSpaceOnUse">
<stop stop-color="#2F343A"/>
<stop offset="1" stop-color="#2965B4"/>
</linearGradient>
<linearGradient id="paint6_linear" x1="4.86614" y1="15.494" x2="17.5762" y2="19.018" gradientUnits="userSpaceOnUse">
<stop stop-color="#2965B4"/>
<stop offset="1" stop-color="#2F343A"/>
</linearGradient>
<linearGradient id="paint7_linear" x1="4.86614" y1="22.6026" x2="17.5762" y2="26.1266" gradientUnits="userSpaceOnUse">
<stop stop-color="#2965B4"/>
<stop offset="1" stop-color="#2F343A"/>
</linearGradient>
<linearGradient id="paint8_linear" x1="4.86614" y1="18.9061" x2="17.5762" y2="22.4301" gradientUnits="userSpaceOnUse">
<stop stop-color="#2965B4"/>
<stop offset="1" stop-color="#2F343A"/>
</linearGradient>
<linearGradient id="paint9_linear" x1="4.86614" y1="26.0147" x2="17.5762" y2="29.5387" gradientUnits="userSpaceOnUse">
<stop stop-color="#2965B4"/>
<stop offset="1" stop-color="#2F343A"/>
</linearGradient>
</defs>
</svg>
