<svg width="27" height="27" viewBox="0 0 27 27" fill="none" xmlns="http://www.w3.org/2000/svg">
<path d="M22.7138 17.0688C21.3634 17.0514 20.0401 16.8231 18.789 16.3916C18.176 16.1737 17.4166 16.3566 17.0359 16.7377L14.5316 18.5779C11.6753 17.0054 9.92645 15.2115 8.44894 12.3373L10.2972 9.9453C10.7754 9.47993 10.9536 8.79341 10.7591 8.14459C10.3584 6.87611 10.1636 5.54806 10.1811 4.19708C10.1937 3.22111 9.40999 2.41688 8.43409 2.40428L4.38342 2.352C3.40752 2.33941 2.60328 3.12315 2.59068 4.09906C2.44632 15.2855 11.4295 24.5035 22.616 24.6479C23.5919 24.6605 24.3961 23.8768 24.4087 22.9009L24.4608 18.8615C24.4734 17.8857 23.6896 17.0814 22.7138 17.0688Z" fill="#2965B4"/>
</svg>
