<svg width="228" height="21" viewBox="0 0 228 21" fill="none" xmlns="http://www.w3.org/2000/svg">
<path d="M14.532 20.7139L12.7631 15.3065H5.44268L3.70103 20.7139H0L7.12992 0.200274H11.1031L18.233 20.7139H14.532ZM11.8651 12.1594L10.1778 6.8951C10.1053 6.62807 9.9964 6.26567 9.85126 5.8079C9.70612 5.35014 9.56098 4.88283 9.41584 4.40599C9.28885 3.91008 9.18906 3.5 9.1165 3.17575C9.02578 3.55722 8.90786 3.99591 8.76272 4.49183C8.63573 4.98774 8.50873 5.45504 8.38173 5.89373C8.25474 6.33243 8.16403 6.66621 8.1096 6.8951L6.39515 12.1594H11.8651Z" fill="#2F343A"/>
<path d="M35.6196 20.7139H32.1363V3.37602H26.8569C26.748 4.3297 26.6301 5.35014 26.5031 6.43733C26.3761 7.50545 26.24 8.58311 26.0949 9.6703C25.9498 10.7384 25.8046 11.7589 25.6595 12.7316C25.5144 13.6853 25.3692 14.5245 25.2241 15.2493C24.9882 16.4891 24.6798 17.5381 24.2988 18.3965C23.936 19.2548 23.428 19.9033 22.7749 20.342C22.1399 20.7807 21.3144 21 20.2984 21C19.609 21 18.9741 20.8951 18.3935 20.6853V17.6526C18.6294 17.748 18.8652 17.8243 19.1011 17.8815C19.3369 17.9387 19.5909 17.9673 19.863 17.9673C20.498 17.9673 20.9606 17.6049 21.2509 16.8801C21.5593 16.1362 21.8405 15.0681 22.0945 13.6758C22.2215 13.0272 22.3848 12.0354 22.5844 10.7003C22.7839 9.36512 23.0016 7.80109 23.2375 6.00817C23.4915 4.21526 23.7364 2.3079 23.9723 0.286103H35.6196V20.7139Z" fill="#2F343A"/>
<path d="M40.6934 20.7139V0.286103H44.1767V8.44005H46.5715C48.3857 8.44005 49.8553 8.70709 50.9801 9.24115C52.1231 9.75613 52.9576 10.4714 53.4837 11.3869C54.0099 12.3025 54.2729 13.3324 54.2729 14.4768C54.2729 16.4223 53.6561 17.9482 52.4224 19.0545C51.1887 20.1608 49.2566 20.7139 46.6259 20.7139H40.6934ZM44.1767 17.6812H46.4355C47.7961 17.6812 48.8484 17.4332 49.5922 16.9373C50.3542 16.4414 50.7352 15.6213 50.7352 14.4768C50.7352 13.3134 50.327 12.5218 49.5106 12.1022C48.6942 11.6826 47.5512 11.4728 46.0817 11.4728H44.1767V17.6812Z" fill="#2F343A"/>
<path d="M64.3595 12.6458L59.6244 20.7139H55.7057L61.2028 11.7589C60.6222 11.53 60.0507 11.1962 59.4883 10.7575C58.9259 10.2997 58.4633 9.69891 58.1004 8.95504C57.7557 8.1921 57.5834 7.22888 57.5834 6.0654C57.5834 4.19619 58.2093 2.76567 59.4611 1.77384C60.7129 0.782016 62.5272 0.286103 64.9038 0.286103H70.8907V20.7139H67.4074V12.6458H64.3595ZM67.4074 3.3188H65.0126C63.7608 3.3188 62.7993 3.55722 62.128 4.03406C61.4568 4.49183 61.1211 5.25477 61.1211 6.32289C61.1211 7.35286 61.4477 8.16349 62.1008 8.75477C62.7539 9.32698 63.7608 9.61308 65.1215 9.61308H67.4074V3.3188Z" fill="#2F343A"/>
<path d="M91.4443 20.7139H87.961V11.6444H79.416V20.7139H75.9327V0.286103H79.416V8.52589H87.961V0.286103H91.4443V20.7139Z" fill="#2F343A"/>
<path d="M104.775 3.08992C102.997 3.08992 101.618 3.75749 100.639 5.09264C99.6771 6.42779 99.1963 8.23978 99.1963 10.5286C99.1963 12.8365 99.6499 14.6485 100.557 15.9646C101.464 17.2616 102.861 17.9101 104.748 17.9101C105.564 17.9101 106.363 17.8242 107.143 17.6526C107.923 17.4619 108.739 17.2139 109.592 16.9087V20.0272C108.794 20.3706 107.986 20.6185 107.17 20.7711C106.372 20.9237 105.446 21 104.394 21C102.398 21 100.747 20.5708 99.4412 19.7125C98.135 18.8351 97.1644 17.6144 96.5294 16.0504C95.8944 14.4673 95.5769 12.6172 95.5769 10.5C95.5769 8.44005 95.9307 6.62807 96.6383 5.06403C97.3458 3.48093 98.3799 2.24114 99.7406 1.34469C101.119 0.448229 102.798 0 104.775 0C105.755 0 106.716 0.123978 107.66 0.371935C108.621 0.600817 109.519 0.925068 110.354 1.34469L109.156 4.34877C108.467 4.02452 107.75 3.73842 107.007 3.49046C106.281 3.22343 105.537 3.08992 104.775 3.08992Z" fill="#2F343A"/>
<path d="M112.171 14.5627V11.53H119.083V14.5627H112.171Z" fill="#2F343A"/>
<path d="M122.546 0.286103H125.703V10.6717C125.703 11.3011 125.694 12.0163 125.676 12.8174C125.658 13.5995 125.63 14.3243 125.594 14.9918C125.576 15.6403 125.549 16.079 125.513 16.3079H125.621L135.255 0.286103H139.337V20.7139H136.18V10.4142C136.18 9.72752 136.198 8.97411 136.235 8.15395C136.271 7.31471 136.307 6.56131 136.343 5.89373C136.38 5.22616 136.407 4.77793 136.425 4.54905H136.316L126.656 20.7139H122.546V0.286103Z" fill="#2F343A"/>
<path d="M159.877 20.7139H156.393V11.6444H147.848V20.7139H144.365V0.286103H147.848V8.52589H156.393V0.286103H159.877V20.7139Z" fill="#2F343A"/>
<path d="M164.934 0.286103H170.785C173.307 0.286103 175.212 0.667575 176.5 1.43052C177.806 2.19346 178.459 3.51908 178.459 5.40736C178.459 6.58992 178.178 7.58174 177.616 8.38283C177.053 9.18392 176.246 9.67984 175.194 9.87057V10.0136C175.901 10.1471 176.545 10.3951 177.126 10.7575C177.707 11.1008 178.16 11.6063 178.487 12.2738C178.831 12.9223 179.004 13.7807 179.004 14.8488C179.004 16.6989 178.378 18.139 177.126 19.1689C175.892 20.1989 174.196 20.7139 172.037 20.7139H164.934V0.286103ZM168.418 8.61172H171.248C172.627 8.61172 173.57 8.38283 174.078 7.92507C174.604 7.4673 174.867 6.79019 174.867 5.89373C174.867 4.9782 174.55 4.32016 173.915 3.91962C173.298 3.51907 172.318 3.3188 170.976 3.3188H168.418V8.61172ZM168.418 11.5586V17.6526H171.574C172.99 17.6526 173.969 17.3665 174.514 16.7943C175.076 16.2221 175.357 15.4591 175.357 14.5055C175.357 13.6281 175.067 12.9223 174.486 12.3883C173.924 11.8351 172.899 11.5586 171.411 11.5586H168.418Z" fill="#2F343A"/>
<path d="M194.054 20.7139H183.006V0.286103H194.054V3.34741H186.489V8.5545H193.565V11.6158H186.489V17.624H194.054V20.7139Z" fill="#2F343A"/>
<path d="M206.453 3.08992C204.675 3.08992 203.297 3.75749 202.317 5.09264C201.355 6.42779 200.875 8.23978 200.875 10.5286C200.875 12.8365 201.328 14.6485 202.235 15.9646C203.142 17.2616 204.539 17.9101 206.426 17.9101C207.243 17.9101 208.041 17.8242 208.821 17.6526C209.601 17.4619 210.417 17.2139 211.27 16.9087V20.0272C210.472 20.3706 209.665 20.6185 208.848 20.7711C208.05 20.9237 207.125 21 206.072 21C204.077 21 202.426 20.5708 201.12 19.7125C199.813 18.8351 198.843 17.6144 198.208 16.0504C197.573 14.4673 197.255 12.6172 197.255 10.5C197.255 8.44005 197.609 6.62807 198.317 5.06403C199.024 3.48093 200.058 2.24114 201.419 1.34469C202.798 0.448229 204.476 0 206.453 0C207.433 0 208.395 0.123978 209.338 0.371935C210.3 0.600817 211.198 0.925068 212.032 1.34469L210.835 4.34877C210.145 4.02452 209.429 3.73842 208.685 3.49046C207.959 3.22343 207.215 3.08992 206.453 3.08992Z" fill="#2F343A"/>
<path d="M222.421 20.7139H218.938V3.37602H213.359V0.286103H228V3.37602H222.421V20.7139Z" fill="#2F343A"/>
</svg>
