<svg width="27" height="27" viewBox="0 0 27 27" fill="none" xmlns="http://www.w3.org/2000/svg">
<path d="M1.426 5.58345C4.8846 8.5125 10.9534 13.6656 12.7371 15.2724C12.9765 15.4892 13.2333 15.5995 13.4999 15.5995C13.766 15.5995 14.0224 15.4902 14.2613 15.2744C16.0465 13.6661 22.1153 8.5125 25.5739 5.58345C25.7893 5.40144 25.8221 5.08151 25.6478 4.859C25.2448 4.34481 24.6439 4.04999 23.9999 4.04999H2.99997C2.35604 4.04999 1.75513 4.34481 1.35217 4.85905C1.17784 5.08151 1.21067 5.40144 1.426 5.58345Z" fill="#2965B4"/>
<path d="M25.7954 7.17074C25.6093 7.08412 25.3904 7.11434 25.2355 7.24664C22.9704 9.16666 19.986 11.7035 17.7353 13.6394C17.6169 13.741 17.5502 13.8901 17.5528 14.0465C17.5554 14.2024 17.6277 14.3495 17.7497 14.4469C19.841 16.1219 22.9925 18.4259 25.2683 20.0635C25.3591 20.1291 25.4667 20.1624 25.5749 20.1624C25.657 20.1624 25.739 20.1435 25.8144 20.1045C25.9897 20.0148 26.0999 19.8343 26.0999 19.6374V7.64703C26.0999 7.44248 25.9809 7.25638 25.7954 7.17074Z" fill="#2965B4"/>
<path d="M1.7315 20.0635C4.00787 18.4259 7.15994 16.1219 9.2507 14.4469C9.37271 14.3495 9.44502 14.2023 9.44757 14.0465C9.45013 13.8901 9.38349 13.741 9.26507 13.6394C7.0143 11.7035 4.02938 9.16666 1.76433 7.24664C1.60846 7.11434 1.38904 7.08515 1.20447 7.17075C1.01886 7.25639 0.899902 7.44248 0.899902 7.64704V19.6375C0.899902 19.8343 1.01015 20.0148 1.18547 20.1045C1.26082 20.1435 1.34287 20.1625 1.42492 20.1625C1.5331 20.1625 1.64074 20.1292 1.7315 20.0635Z" fill="#2965B4"/>
<path d="M25.4563 21.4919C23.2584 19.9195 19.2096 16.9879 16.7928 15.0263C16.5959 14.8658 16.3109 14.8709 16.1171 15.0381C15.6429 15.4518 15.246 15.8005 14.9645 16.0537C14.1001 16.834 12.9004 16.834 12.0339 16.0527C11.7535 15.7999 11.3567 15.4502 10.8824 15.038C10.6902 14.8698 10.4046 14.8647 10.2072 15.0262C7.79853 16.9811 3.74517 19.9163 1.54366 21.4918C1.42111 21.58 1.34216 21.7159 1.3268 21.8661C1.31194 22.0163 1.36165 22.1655 1.46471 22.2762C1.86211 22.7044 2.42197 22.95 2.9998 22.95H23.9998C24.5776 22.95 25.137 22.7044 25.5353 22.2763C25.6379 22.166 25.6881 22.0169 25.6733 21.8666C25.6578 21.7165 25.5789 21.5801 25.4563 21.4919Z" fill="#2965B4"/>
</svg>
