<svg width="13" height="20" viewBox="0 0 13 20" fill="none" xmlns="http://www.w3.org/2000/svg">
<g opacity="0.9">
<path d="M12.1581 9.2196L3.25784 0.31951C3.05199 0.113495 2.7772 0 2.48419 0C2.19119 0 1.91639 0.113495 1.71054 0.31951L1.0551 0.974789C0.628597 1.40178 0.628597 2.09576 1.0551 2.52209L8.52886 9.99585L1.0468 17.4779C0.840953 17.6839 0.727295 17.9586 0.727295 18.2514C0.727295 18.5446 0.840953 18.8192 1.0468 19.0254L1.70225 19.6805C1.90826 19.8865 2.18289 20 2.4759 20C2.7689 20 3.0437 19.8865 3.24955 19.6805L12.1581 10.7723C12.3644 10.5656 12.4778 10.2897 12.4771 9.99634C12.4778 9.70187 12.3644 9.4261 12.1581 9.2196Z" fill="white"/>
</g>
</svg>
