<svg width="23" height="23" viewBox="0 0 23 23" fill="none" xmlns="http://www.w3.org/2000/svg">
<path d="M20.7138 15.0688C19.3634 15.0514 18.0401 14.8231 16.789 14.3916C16.176 14.1737 15.4166 14.3566 15.0359 14.7377L12.5316 16.5779C9.67527 15.0054 7.92645 13.2115 6.44894 10.3373L8.29723 7.9453C8.77541 7.47993 8.95363 6.79341 8.75909 6.14459C8.35838 4.87611 8.16365 3.54806 8.18108 2.19708C8.19373 1.22111 7.40999 0.416875 6.43409 0.404281L2.38342 0.352004C1.40752 0.33941 0.603278 1.12315 0.590684 2.09906C0.446316 13.2855 9.42953 22.5035 20.616 22.6479C21.5919 22.6605 22.3961 21.8768 22.4087 20.9009L22.4608 16.8615C22.4734 15.8857 21.6896 15.0814 20.7138 15.0688Z" fill="#2965B4"/>
</svg>
