<svg width="20" height="20" viewBox="0 0 20 20" fill="none" xmlns="http://www.w3.org/2000/svg">
<g opacity="0.9">
<path d="M5.8419 9.2196L14.7422 0.31951C14.948 0.113495 15.2228 0 15.5158 0C15.8088 0 16.0836 0.113495 16.2895 0.31951L16.9449 0.974789C17.3714 1.40178 17.3714 2.09576 16.9449 2.52209L9.47114 9.99585L16.9532 17.4779C17.159 17.6839 17.2727 17.9586 17.2727 18.2514C17.2727 18.5446 17.159 18.8192 16.9532 19.0254L16.2978 19.6805C16.0917 19.8865 15.8171 20 15.5241 20C15.2311 20 14.9563 19.8865 14.7504 19.6805L5.8419 10.7723C5.63556 10.5656 5.52223 10.2897 5.52288 9.99634C5.52223 9.70187 5.63556 9.4261 5.8419 9.2196Z" fill="white"/>
</g>
</svg>
