<svg width="40" height="40" viewBox="0 0 40 40" fill="none" xmlns="http://www.w3.org/2000/svg">
<g clip-path="url(#clip0)">
<path d="M34.8597 11.6599L34.8596 11.6599L20.7844 4.86497L20.7843 4.86493C20.6047 4.77828 20.3954 4.77826 20.2157 4.86495L20.2157 4.86497L6.14043 11.6599C6.14042 11.6599 6.14042 11.6599 6.14041 11.6599C5.91432 11.769 5.7707 11.998 5.7707 12.2489V28.7509C5.7707 29.0019 5.91432 29.2308 6.14041 29.34C6.14042 29.34 6.14042 29.34 6.14043 29.34L20.2156 36.1349L20.2157 36.1349C20.3054 36.1782 20.4027 36.2 20.5 36.2C20.5973 36.2 20.6945 36.1782 20.7843 36.135L20.7844 36.1349L34.8596 29.34C34.8596 29.34 34.8596 29.34 34.8596 29.34C35.0857 29.2308 35.2293 29.0019 35.2293 28.7509V12.249C35.2293 11.9978 35.0856 11.7691 34.8597 11.6599ZM24.4865 17.1193L24.4864 17.1193C24.3294 16.7941 23.9385 16.6575 23.613 16.8147L20.5 18.3176L19.3279 17.7517C19.3279 17.7517 19.3279 17.7517 19.3278 17.7516C19.0024 17.5944 18.6114 17.7311 18.4544 18.0563C18.2973 18.3816 18.4337 18.7727 18.759 18.9297L18.759 18.9297L19.8459 19.4544V34.5037L7.07891 28.3403V13.2911L16.8184 17.9929C16.9098 18.0371 17.0069 18.0581 17.1025 18.0581C17.3452 18.0581 17.579 17.9222 17.6919 17.6883C17.849 17.363 17.7125 16.9719 17.3873 16.8149L17.3872 16.8149L7.92933 12.2489L11.9803 10.2933L25.4275 16.785V22.1136C25.4275 22.3387 25.5432 22.5479 25.7338 22.6676L25.7339 22.6677C25.8398 22.7342 25.9606 22.7677 26.0816 22.7677C26.1786 22.7677 26.2759 22.7462 26.366 22.7026L29.7634 21.0625C29.7634 21.0625 29.7634 21.0625 29.7634 21.0625C29.9895 20.9534 30.1332 20.7245 30.1332 20.4734V15.1198L33.9211 13.2911V28.3405L21.1541 34.5037V19.4544L24.1818 17.9928L24.0949 17.8127L24.1818 17.9928C24.5071 17.8357 24.6435 17.4447 24.4865 17.1193ZM17.1943 7.77622L20.5 6.18039L33.0707 12.2489L29.7651 13.8448C29.7645 13.8445 29.764 13.8442 29.7634 13.8439L17.1943 7.77622ZM13.5085 9.5784L15.7089 8.51183L28.2605 14.5712L26.0556 15.6356L13.5085 9.5784ZM26.7357 16.7599L28.825 15.7513V20.0628L26.7357 21.0714V16.7599Z" fill="white" stroke="white" stroke-width="0.4"/>
<path d="M10.7133 26.5247L10.7134 26.5247C11.0386 26.6818 11.1751 27.0727 11.0179 27.3981L10.7133 26.5247ZM10.7133 26.5247L8.64783 25.5275C8.64781 25.5275 8.6478 25.5275 8.64778 25.5275C8.32225 25.3703 7.93137 25.5069 7.77435 25.8321C7.61727 26.1575 7.75368 26.5485 8.07898 26.7056L8.079 26.7056M10.7133 26.5247L8.079 26.7056M8.079 26.7056L10.1445 27.7027M8.079 26.7056L10.1445 27.7027M10.1445 27.7027C10.1445 27.7027 10.1445 27.7027 10.1446 27.7027M10.1445 27.7027L10.1446 27.7027M10.1446 27.7027C10.2359 27.7469 10.333 27.7679 10.4286 27.7679M10.1446 27.7027L10.4286 27.7679M10.4286 27.7679C10.6712 27.7679 10.905 27.632 11.0179 27.3981L10.4286 27.7679Z" fill="white" stroke="white" stroke-width="0.4"/>
<path d="M8.65067 23.3738L8.65066 23.3738C8.32529 23.2167 7.93429 23.3531 7.77723 23.6785L7.77722 23.6785C7.62024 24.0038 7.75663 24.3948 8.08193 24.5519L8.08195 24.5519L12.0456 26.4654L12.0457 26.4655C12.1369 26.5095 12.2339 26.5306 12.3297 26.5306C12.5723 26.5306 12.8061 26.3947 12.919 26.1608L12.919 26.1608C13.076 25.8354 12.9397 25.4443 12.6144 25.2873C12.6144 25.2873 12.6144 25.2873 12.6143 25.2873L8.65067 23.3738Z" fill="white" stroke="white" stroke-width="0.4"/>
</g>
<defs>
<clipPath id="clip0">
<rect x="5" y="5" width="31" height="31" fill="white"/>
</clipPath>
</defs>
</svg>
