<svg width="33" height="32" viewBox="0 0 33 32" fill="none" xmlns="http://www.w3.org/2000/svg">
<g clip-path="url(#clip0)">
<path d="M21.9485 14.5052L21.9485 14.5052L21.951 14.5071C23.3428 15.5989 24.7603 16.7109 25.9308 17.7538C27.1004 18.7959 28.0297 19.7744 28.4374 20.5987C29.0158 21.7628 28.7401 23.0555 27.74 23.8849C27.1608 24.3671 26.4612 24.6058 25.778 24.5799C25.5219 25.1778 25.0219 25.6866 24.3385 26.0203L24.3385 26.0203C23.6406 26.3603 22.873 26.4627 22.1963 26.3321C21.8251 27.0412 21.1837 27.6251 20.4055 27.917C19.7455 28.1664 19.059 28.1687 18.4514 27.9469C17.9905 28.3114 17.3367 28.4943 16.5001 28.4943C15.9669 28.4943 15.3591 28.3514 14.8071 28.1593C14.2549 27.967 13.7546 27.724 13.4359 27.5208C12.6703 27.0331 8.83909 24.2391 5.6524 21.6518L5.65237 21.6518C5.12308 21.2214 4.33957 20.4276 3.58251 19.6606L3.56588 19.6437L21.9485 14.5052ZM21.9485 14.5052C20.3939 13.2865 18.9282 12.1369 17.9946 11.2315C17.7461 10.989 17.3754 10.9122 17.0484 11.0261L17.0483 11.0261M21.9485 14.5052L17.0483 11.0261M17.0483 11.0261C16.4957 11.2201 16.1449 11.3717 15.8698 11.4905C15.857 11.496 15.8444 11.5015 15.8319 11.5069L15.8318 11.5069M17.0483 11.0261L15.8318 11.5069M15.8318 11.5069L15.8298 11.5078C15.6163 11.6005 15.477 11.6611 15.3197 11.7059C15.1625 11.7507 14.9858 11.7802 14.6986 11.8083M15.8318 11.5069L14.036 12.1931M14.036 12.1931L14.036 12.1931C14.1867 11.9748 14.4294 11.8346 14.6986 11.8083M14.036 12.1931C13.4363 13.0625 12.83 13.4548 12.2752 13.599C11.7194 13.7435 11.2078 13.6411 10.7935 13.5064L10.7934 13.5063M14.036 12.1931L10.7934 13.5063M14.6986 11.8083L14.7035 11.8581L14.6986 11.8083C14.6986 11.8083 14.6986 11.8083 14.6986 11.8083ZM10.7934 13.5063C10.6647 13.4647 10.5946 13.4189 10.5538 13.3754C10.5139 13.3327 10.4981 13.288 10.4862 13.2385L10.4861 13.2383M10.7934 13.5063L10.4861 13.2383M10.4861 13.2383C10.4442 13.0685 10.4644 12.8358 10.541 12.5598C10.6174 12.2852 10.7481 11.9729 10.9215 11.6468C11.2682 10.9945 11.7828 10.2915 12.3632 9.72859L12.3632 9.72858M10.4861 13.2383L12.3632 9.72858M12.3632 9.72858C13.7537 8.3794 14.7998 7.5441 15.872 7.206C16.9404 6.8691 18.0428 7.02379 19.5518 7.67773C22.9897 9.16859 26.4341 10.3357 26.4687 10.3474L26.4688 10.3474M12.3632 9.72858L26.4688 10.3474M26.4688 10.3474C26.9437 10.5067 27.4565 10.2655 27.6218 9.80582L27.6218 9.80566M26.4688 10.3474L27.6218 9.80566M27.6218 9.80566C27.7855 9.34536 27.5358 8.84419 27.0637 8.6846C27.0298 8.67313 23.657 7.53038 20.2914 6.06936L20.2914 6.06935M27.6218 9.80566L20.2914 6.06935M20.2914 6.06935C18.3225 5.21586 16.7906 5.06725 15.3627 5.51223C13.9377 5.95633 12.6236 6.98962 11.0854 8.48203C10.4969 9.05271 9.80357 9.91467 9.30846 10.8463C8.81428 11.7762 8.51247 12.7851 8.72223 13.6454L8.72225 13.6455M20.2914 6.06935L8.72225 13.6455M8.72225 13.6455C8.90307 14.381 9.43736 14.9243 10.2254 15.1762C11.2037 15.4893 12.1417 15.4966 13.0022 15.21C13.8572 14.9252 14.6324 14.3514 15.2935 13.5058L8.72225 13.6455ZM26.5638 22.5454L26.564 22.5452C26.6756 22.453 26.8113 22.3082 26.8816 22.1119C26.9512 21.9175 26.9586 21.6678 26.806 21.3599C26.6489 21.0431 26.3544 20.6649 25.9584 20.2434C25.563 19.8225 25.069 19.3611 24.5158 18.8779C23.4104 17.9124 22.0713 16.8621 20.8146 15.8764L20.8104 15.8731C20.8104 15.8731 20.8104 15.8731 20.8104 15.8731C19.4306 14.7918 18.1177 13.7613 17.1397 12.8734C16.905 12.966 16.7258 13.0434 16.5714 13.1103C16.5713 13.1103 16.5713 13.1103 16.5712 13.1103L16.5514 13.0644L26.5638 22.5454ZM26.5638 22.5454C26.4007 22.6812 26.2078 22.7703 26.0267 22.805C25.8445 22.8398 25.6808 22.8186 25.5699 22.7432L25.5695 22.7429C25.2766 22.5483 24.8951 22.5359 24.5928 22.7114M26.5638 22.5454L24.5928 22.7114M24.5928 22.7114C24.2886 22.8869 24.1175 23.2194 24.1557 23.5616M24.5928 22.7114L3.56584 19.6437C3.50329 19.5805 3.44143 19.5179 3.38053 19.4562C2.88847 18.9582 2.45845 18.523 2.22476 18.3315C1.84193 18.0183 1.79463 17.4616 2.11775 17.0902C2.43868 16.7176 3.0085 16.6709 3.39353 16.9864L3.39357 16.9864C3.68705 17.2275 4.25577 17.7991 4.87416 18.4252C5.57331 19.1331 6.3614 19.9303 6.81568 20.3015C10.0679 22.9426 13.8325 25.6658 14.4308 26.0476L14.4309 26.0477C14.6771 26.2058 15.0546 26.3781 15.4425 26.5108C15.831 26.6439 16.2235 26.7351 16.5 26.7351C16.8977 26.7351 17.1072 26.6854 17.2196 26.6302C17.275 26.6031 17.3061 26.5749 17.3249 26.551C17.3438 26.5272 17.3523 26.5055 17.3602 26.4852L17.3604 26.4847L17.407 26.503L17.3601 26.4854C17.4637 26.2089 17.7014 26.0017 17.996 25.9316L17.9961 25.9316C18.287 25.8633 18.598 25.9385 18.8225 26.1352L18.8227 26.1354C19.143 26.4195 19.5 26.367 19.7542 26.2736M24.1557 23.5616C24.1557 23.5616 24.1557 23.5616 24.1557 23.5616L24.2054 23.5561L24.1557 23.5617C24.1557 23.5617 24.1557 23.5616 24.1557 23.5616ZM24.1557 23.5616C24.1827 23.8068 24.0813 24.0004 23.9438 24.1478C23.8056 24.2959 23.6334 24.3943 23.5282 24.4453L23.528 24.4454C23.2612 24.5764 22.9891 24.6303 22.7588 24.6283C22.5263 24.6262 22.3444 24.5676 22.2504 24.483C21.9967 24.2546 21.6333 24.1884 21.312 24.3039L21.3118 24.304C20.9895 24.4216 20.7643 24.7099 20.7316 25.0446L20.7315 25.0448C20.6821 25.5685 20.2802 26.0757 19.7542 26.2736M19.7542 26.2736C19.7543 26.2736 19.7544 26.2736 19.7545 26.2736L19.7717 26.3205M19.7542 26.2736C19.7542 26.2737 19.7541 26.2737 19.7541 26.2737L19.7717 26.3205M19.7717 26.3205C20.3142 26.1164 20.73 25.5937 20.7813 25.0495M19.7717 26.3205C19.5099 26.4167 19.13 26.4748 18.7895 26.1728C18.5774 25.987 18.283 25.9156 18.0076 25.9803L20.7813 25.0495M20.7813 25.0495C20.8121 24.7342 21.0244 24.4621 21.3289 24.351M20.7813 25.0495L21.3289 24.351M21.3289 24.351C21.6335 24.2414 21.9774 24.3045 22.217 24.5202C22.4309 24.7127 23.0024 24.7591 23.55 24.4903L21.3289 24.351Z" fill="white" stroke="white" stroke-width="0.1"/>
<path d="M13.0777 6.8236H5.37757C4.87914 6.8236 4.47197 7.21625 4.47197 7.70327C4.47197 8.19029 4.87914 8.58295 5.37757 8.58295H13.0777C13.5762 8.58295 13.9834 8.19029 13.9834 7.70327C13.9834 7.21625 13.5762 6.8236 13.0777 6.8236Z" fill="white" stroke="white" stroke-width="0.1"/>
<path d="M30.9405 18.8269L30.9404 18.8267C30.6597 18.4247 30.099 18.3142 29.6845 18.5879C29.6844 18.5879 29.6844 18.588 29.6844 18.588L27.183 20.2172L27.1829 20.2173C26.768 20.4878 26.6565 21.0356 26.9365 21.4392L26.9366 21.4393C27.1124 21.6908 27.3985 21.8274 27.6894 21.8274C27.8612 21.8274 28.0367 21.7801 28.1925 21.6783C28.1925 21.6782 28.1925 21.6782 28.1925 21.6782L30.6941 20.0489L30.6941 20.0488C31.109 19.7782 31.2204 19.2305 30.9405 18.8269Z" fill="white" stroke="white" stroke-width="0.1"/>
<path d="M25.6181 22.7748L25.6181 22.7748C26.0116 23.0754 26.0793 23.6304 25.7685 24.011L25.7683 24.0112C25.5873 24.2307 25.3214 24.3464 25.0556 24.3464C24.8605 24.3464 24.6614 24.2851 24.4964 24.1585C24.0423 23.8109 22.8443 22.6552 21.7081 21.5343C20.5704 20.412 19.4905 19.3205 19.2706 19.0981L25.6181 22.7748ZM25.6181 22.7748C25.3149 22.5432 24.4796 21.7491 23.5052 20.7955M25.6181 22.7748L23.5052 20.7955M23.5052 20.7955C22.5323 19.8433 21.4241 18.7356 20.5772 17.8795M23.5052 20.7955L20.5772 17.8795M20.5772 17.8795C20.2314 17.5284 19.6581 17.5161 19.2977 17.8532C18.9348 18.1894 18.9239 18.7478 19.2706 19.0981L20.5772 17.8795Z" fill="white" stroke="white" stroke-width="0.1"/>
<path d="M22.1997 24.4392L22.1997 24.4392C21.1785 23.6473 18.6062 20.9974 18.0233 20.3824L18.0233 20.3823C17.6828 20.0241 17.1131 20.0033 16.7441 20.3295L16.7441 20.3295L16.7439 20.3297C16.3757 20.6585 16.35 21.217 16.6896 21.5746L16.6896 21.5746L16.6901 21.5751C16.6913 21.5763 16.6973 21.5826 16.7078 21.5935C16.8296 21.7204 17.5558 22.4774 18.4128 23.335C19.3431 24.2659 20.4311 25.3191 21.0689 25.8142L21.0691 25.8143C21.2357 25.9424 21.4364 26.0055 21.6335 26.0055C21.8974 26.0055 22.1615 25.8916 22.3408 25.6774L22.3411 25.677C22.6536 25.2966 22.5898 24.7417 22.1997 24.4392Z" fill="white" stroke="white" stroke-width="0.1"/>
<path d="M18.7956 26.111L18.7956 26.111C17.5784 25.1161 15.0843 22.5418 14.5957 22.0348L14.5957 22.0348C14.2536 21.6802 13.6803 21.6608 13.3162 21.9927C12.9498 22.3252 12.9315 22.8819 13.2727 23.2374L13.2728 23.2375C13.9736 23.9651 16.3647 26.4234 17.6286 27.4578L17.6287 27.4578C17.7988 27.5964 18.0051 27.6648 18.2113 27.6648C18.4678 27.6648 18.7249 27.558 18.9043 27.3524L18.9045 27.3522C19.2276 26.979 19.1783 26.4241 18.7956 26.111Z" fill="white" stroke="white" stroke-width="0.1"/>
<path d="M-3.12389 3.50675L-3.12389 3.50675L-3.12437 3.50673C-3.37979 3.49454 -3.61724 3.57659 -3.79877 3.74381C-3.98012 3.90909 -4.08369 4.14143 -4.08369 4.38463V19.3183C-4.08369 19.8053 -3.67652 20.198 -3.17809 20.198H1.95536C2.34559 20.198 2.69381 19.9545 2.81554 19.5914L2.81564 19.5911C2.87901 19.4025 3.64713 17.1163 4.44818 14.3377C5.24934 11.5587 6.08489 8.28228 6.27956 6.11979L6.27957 6.11971C6.30323 5.85203 6.2015 5.58783 5.99999 5.40474C5.62438 5.05969 4.97336 4.77725 4.18885 4.54499C3.40233 4.31213 2.47433 4.12769 1.53842 3.98244C-0.333559 3.6919 -2.24204 3.55738 -3.12389 3.50675ZM4.41826 6.4805C3.95921 10.094 1.94185 16.4555 1.2945 18.4387H-2.27257V5.32805C-0.915462 5.43352 0.49095 5.59883 1.69361 5.80018C2.88943 6.00038 3.87834 6.23538 4.41826 6.4805Z" fill="white" stroke="white" stroke-width="0.1"/>
<path d="M25.5572 6.906L25.5572 6.906L25.5569 6.90613C25.3218 7.01309 25.1456 7.21169 25.0728 7.4533C25.0002 7.69472 25.0366 7.95365 25.1726 8.16813L25.1727 8.16832C25.4343 8.57673 25.8379 9.45518 26.3073 10.5827C26.7761 11.7087 27.3087 13.0789 27.8284 14.4678C28.8679 17.246 29.8542 20.0958 30.1718 21.212L30.1718 21.2121C30.2809 21.5944 30.6383 21.8573 31.0447 21.8573H36.1782C36.6766 21.8573 37.0838 21.4646 37.0838 20.9776V6.04395C37.0838 5.55523 36.6765 5.16436 36.1782 5.16436C29.4517 5.16436 25.7178 6.83411 25.5572 6.906ZM35.2727 20.098H31.7213C30.9046 17.5262 28.548 10.9568 27.2115 8.17445C28.5299 7.74558 31.2905 7.03123 35.2727 6.93485V20.098Z" fill="white" stroke="white" stroke-width="0.1"/>
</g>
<defs>
<clipPath id="clip0">
<rect width="33" height="32" fill="white"/>
</clipPath>
</defs>
</svg>
