<svg width="40" height="40" viewBox="0 0 40 40" fill="none" xmlns="http://www.w3.org/2000/svg">
<path d="M34.125 25.5026V22.2786C34.125 18.9321 33.1297 15.7513 31.2467 13.0801C29.5752 10.709 27.2642 8.89054 24.684 7.90037C24.6122 6.2879 23.3798 5 21.875 5H18.125C16.6202 5 15.3878 6.2879 15.316 7.90037C12.7358 8.89054 10.4248 10.709 8.75331 13.0801C6.87031 15.7513 5.875 18.9321 5.875 22.2786V25.5026C4.78381 25.9222 4 27.0519 4 28.377C4 30.0583 5.26169 31.4261 6.8125 31.4261H33.1875C34.7383 31.4261 36 30.0583 36 28.377C36 27.0519 35.2162 25.9222 34.125 25.5026ZM7.75 22.2786C7.75 18.6135 9.19413 15.1823 11.5625 12.7344V16.1803C11.5625 16.7416 11.9823 17.1967 12.5 17.1967C13.0177 17.1967 13.4375 16.7416 13.4375 16.1803V11.1401C14.0282 10.7313 14.6548 10.3746 15.3125 10.0778V18.2131C15.3125 18.7744 15.7323 19.2295 16.25 19.2295C16.7677 19.2295 17.1875 18.7744 17.1875 18.2131V8.6544C17.1876 8.65162 17.1875 8.64884 17.1875 8.64606V8.04917C17.1875 7.48873 17.6081 7.03278 18.125 7.03278H21.875C22.3919 7.03278 22.8125 7.48873 22.8125 8.04917V8.64579C22.8125 8.64871 22.8124 8.65155 22.8125 8.65446V18.2131C22.8125 18.7744 23.2323 19.2295 23.75 19.2295C24.2677 19.2295 24.6875 18.7744 24.6875 18.2131V10.0778C25.3452 10.3747 25.9718 10.7314 26.5625 11.1401V16.1803C26.5625 16.7416 26.9823 17.1967 27.5 17.1967C28.0177 17.1967 28.4375 16.7416 28.4375 16.1803V12.7344C30.8059 15.1823 32.25 18.6135 32.25 22.2786V25.3278H7.75V22.2786ZM33.1875 29.3934H6.8125C6.29556 29.3934 5.875 28.9374 5.875 28.377C5.875 27.8165 6.29556 27.3606 6.8125 27.3606H33.1875C33.7044 27.3606 34.125 27.8165 34.125 28.377C34.125 28.9374 33.7044 29.3934 33.1875 29.3934Z" fill="white"/>
</svg>
