<svg width="40" height="40" viewBox="0 0 40 40" fill="none" xmlns="http://www.w3.org/2000/svg">
<path d="M15.6706 23.9114C15.6706 24.2216 15.8243 24.5116 16.0813 24.687C16.3928 24.899 16.6565 25.0078 16.7574 25.0294C17.2124 25.0961 22.4263 25.6533 25.8453 26.0145L25.599 28.3451C22.9357 28.0638 16.7022 27.4025 16.3412 27.336C15.7043 27.2188 15.0781 26.8394 14.7615 26.6237C14.4599 26.4181 14.2001 26.1665 13.9868 25.8827L13.976 25.8937L8.35191 20.3745C8.12852 20.1551 7.83317 20.0365 7.52024 20.0391C7.20732 20.042 6.91417 20.1665 6.69481 20.3899C6.47563 20.6136 6.35661 20.9088 6.35936 21.2219C6.36229 21.5348 6.48698 21.828 6.71037 22.0474L15.4079 30.5825C16.1028 31.2651 17.0223 31.6406 17.9961 31.6406H34.0156V33.9844H17.9961C16.4043 33.9844 14.9021 33.3702 13.7662 32.2555L5.06883 23.7202C4.39848 23.0623 4.02458 22.183 4.01579 21.2439C4.00682 20.3049 4.36442 19.4187 5.02195 18.7485C5.67985 18.0782 6.55912 17.7043 7.49827 17.6955C8.43577 17.6871 9.32328 18.0439 9.99382 18.7017L13.7187 22.3575C14.0205 21.7991 14.479 21.3376 15.0351 21.0326C12.7556 19.2973 11.2812 16.556 11.2812 13.4766C11.2812 8.24249 15.5393 3.98438 20.7734 3.98438C22.6766 3.98438 24.4504 4.54797 25.9377 5.51605L24.294 7.2572C23.2543 6.66614 22.0526 6.32812 20.7734 6.32812C16.8319 6.32812 13.625 9.53503 13.625 13.4766C13.625 17.4181 16.8319 20.625 20.7734 20.625C24.6538 20.625 27.8221 17.517 27.9195 13.6595L30.0393 11.4141C30.1871 12.0784 30.2656 12.7683 30.2656 13.4766C30.2656 16.4136 28.9245 19.0431 26.8227 20.7858C28.9731 21.1122 31.0127 21.9388 32.8051 23.2214L34.0156 24.0875V26.9696L31.4411 25.1276C29.5103 23.7458 27.235 23.0002 24.8611 22.9717C24.8127 22.9709 24.7651 22.9706 24.7159 22.9708L16.6087 22.9741C16.0912 22.9739 15.6706 23.3945 15.6706 23.9114ZM17.5379 10.9807L15.923 12.6791L21.0345 17.5386L30.5318 7.47803L28.8275 5.86926L20.9448 14.2192L17.5379 10.9807Z" fill="white"/>
</svg>
