<svg width="40" height="40" viewBox="0 0 40 40" fill="none" xmlns="http://www.w3.org/2000/svg">
<path d="M33.2336 22.9169C33.2336 21.448 32.5199 20.1409 31.4172 19.3138C31.4046 12.8623 26.0454 7.59016 19.5 7.59016C17.8917 7.59016 16.3495 7.87256 14.9481 8.41709C14.9162 5.94782 12.8685 3.95 10.3574 3.95C7.82658 3.95 5.76641 5.97946 5.76641 8.47561C5.76641 9.82473 6.36916 11.0368 7.32168 11.8664C5.31633 12.9344 3.95 15.0258 3.95 17.4268V19.2171C3.95 19.7397 4.3797 20.1622 4.9082 20.1622H7.62137C8.10956 26.1651 13.2502 30.9633 19.5 30.9633C20.4914 30.9633 21.4524 30.8619 22.3515 30.6665C22.2752 31.0556 22.2352 31.4573 22.2352 31.8681V33.6583C22.2352 34.181 22.6649 34.6035 23.1934 34.6035H34.0918C34.6203 34.6035 35.05 34.181 35.05 33.6583V31.8681C35.05 29.4671 33.6837 27.3756 31.6783 26.3076C32.6308 25.4781 33.2336 24.266 33.2336 22.9169ZM31.3172 22.9169C31.3172 24.3693 30.118 25.5523 28.6426 25.5523C27.1672 25.5523 25.968 24.3693 25.968 22.9169C25.968 21.4645 27.1672 20.2815 28.6426 20.2815C30.118 20.2815 31.3172 21.4645 31.3172 22.9169ZM10.3574 5.84024C11.8328 5.84024 13.032 7.02319 13.032 8.47561C13.032 9.92802 11.8328 11.111 10.3574 11.111C8.882 11.111 7.68281 9.92802 7.68281 8.47561C7.68281 7.02319 8.882 5.84024 10.3574 5.84024ZM5.86641 18.2719V17.4268C5.86641 14.9873 7.88043 13.0012 10.3574 13.0012C12.8344 13.0012 14.8484 14.9873 14.8484 17.4268V18.2719H5.86641ZM19.5 29.0731C14.3085 29.0731 10.0299 25.1544 9.54562 20.1622H15.8066C16.3351 20.1622 16.7648 19.7397 16.7648 19.2171V17.4268C16.7648 15.0258 15.3985 12.9344 13.3932 11.8664C13.7293 11.5736 14.0221 11.2336 14.2599 10.8562C15.7614 9.95672 17.5671 9.4804 19.5 9.4804C24.7167 9.4804 29.0121 13.4373 29.4614 18.4642C29.1957 18.4167 28.9221 18.3913 28.6426 18.3913C26.1117 18.3913 24.0516 20.4207 24.0516 22.9169C24.0516 24.266 24.6543 25.4781 25.6068 26.3076C24.6616 26.811 23.8586 27.5416 23.2736 28.4249C22.1795 28.849 20.8822 29.0731 19.5 29.0731ZM24.1516 32.7132V31.8681C24.1516 29.4286 26.1656 27.4425 28.6426 27.4425C31.1196 27.4425 33.1336 29.4286 33.1336 31.8681V32.7132H24.1516Z" fill="white" stroke="white" stroke-width="0.1"/>
</svg>
