<svg width="40" height="40" viewBox="0 0 40 40" fill="none" xmlns="http://www.w3.org/2000/svg">
<g clip-path="url(#clip0)">
<path d="M35.0319 14.6317C34.1162 13.716 32.6262 13.716 31.7101 14.632C31.4284 14.9139 29.6296 16.7142 29.3548 16.9892V10.7852C29.3548 10.1578 29.1105 9.56804 28.6669 9.12446L26.4526 6.91012C26.0091 6.46649 25.4192 6.22223 24.7919 6.22223H11.3486C10.0536 6.22223 9 7.27583 9 8.57086V30.5958C9 31.8909 10.0536 32.9445 11.3486 32.9445H27.0062C28.3012 32.9445 29.3548 31.8909 29.3548 30.5958V23.635L35.0318 17.9532C35.9497 17.0354 35.9499 15.5497 35.0319 14.6317ZM24.6576 7.78798C24.8055 7.78798 25.0905 7.76236 25.3455 8.01726L27.5598 10.2316C27.8082 10.4801 27.7891 10.7524 27.7891 10.9195H24.6576V7.78798ZM27.7891 30.5958C27.7891 31.0275 27.4379 31.3787 27.0062 31.3787H11.3486C10.917 31.3787 10.5658 31.0275 10.5658 30.5958V8.57086C10.5658 8.13918 10.917 7.78798 11.3486 7.78798H23.0918V11.7024C23.0918 12.1347 23.4423 12.4852 23.8747 12.4852H27.7891V18.5564C27.7891 18.5564 25.4794 20.868 25.4793 20.8681L24.3726 21.9748C24.2867 22.0607 24.2219 22.1655 24.1835 22.2808L23.0763 25.6023C22.9825 25.8836 23.0557 26.1937 23.2654 26.4034C23.4754 26.6134 23.7857 26.6862 24.0666 26.5925L27.3881 25.4854C27.5034 25.447 27.6082 25.3822 27.6941 25.2963L27.7891 25.2013V30.5958ZM26.0333 22.5284L27.1405 23.6355L26.7176 24.0584L25.0569 24.612L25.6104 22.9512L26.0333 22.5284ZM28.2474 22.5281L27.1403 21.421C27.7298 20.8309 30.3482 18.2103 30.9036 17.6545L32.0107 18.7616L28.2474 22.5281ZM33.9245 16.8463L33.1174 17.654L32.0103 16.5469L32.8176 15.7389C33.123 15.4336 33.6196 15.4337 33.9248 15.7389C34.23 16.0442 34.2316 16.5391 33.9245 16.8463Z" fill="white"/>
<path d="M23.8745 14.051H12.9142C12.4819 14.051 12.1313 14.4015 12.1313 14.8339C12.1313 15.2663 12.4819 15.6168 12.9142 15.6168H23.8745C24.3069 15.6168 24.6574 15.2663 24.6574 14.8339C24.6574 14.4015 24.3069 14.051 23.8745 14.051Z" fill="white"/>
<path d="M20.743 17.1825H12.9142C12.4819 17.1825 12.1313 17.533 12.1313 17.9654C12.1313 18.3977 12.4819 18.7482 12.9142 18.7482H20.743C21.1754 18.7482 21.5259 18.3977 21.5259 17.9654C21.5259 17.533 21.1754 17.1825 20.743 17.1825Z" fill="white"/>
<path d="M20.743 20.314H12.9142C12.4819 20.314 12.1313 20.6645 12.1313 21.0968C12.1313 21.5292 12.4819 21.8797 12.9142 21.8797H20.743C21.1754 21.8797 21.5259 21.5292 21.5259 21.0968C21.5259 20.6645 21.1754 20.314 20.743 20.314Z" fill="white"/>
<path d="M20.743 23.4456H12.9142C12.4819 23.4456 12.1313 23.7961 12.1313 24.2284C12.1313 24.6608 12.4819 25.0113 12.9142 25.0113H20.743C21.1754 25.0113 21.5259 24.6608 21.5259 24.2284C21.5259 23.7961 21.1754 23.4456 20.743 23.4456Z" fill="white"/>
<path d="M23.8746 28.2472H19.1773C18.7449 28.2472 18.3944 28.5977 18.3944 29.0301C18.3944 29.4624 18.7449 29.8129 19.1773 29.8129H23.8746C24.3069 29.8129 24.6574 29.4624 24.6574 29.0301C24.6574 28.5977 24.3069 28.2472 23.8746 28.2472Z" fill="white"/>
</g>
<defs>
<clipPath id="clip0">
<rect width="40" height="40" fill="white"/>
</clipPath>
</defs>
</svg>
